<svg width="169" height="29" viewBox="0 0 169 29" fill="none" xmlns="http://www.w3.org/2000/svg">
<g clip-path="url(#clip0_5107_31022)">
<path d="M34.7642 13.0389L37.5886 0.0403993H32.9845L30.8067 11.2243V0.0403993H25.9032V18.678C28.8126 17.6781 31.9705 16.5267 35.1896 15.2508L34.7574 13.0389H34.7642ZM42.55 11.9346C42.55 10.8944 43.2306 10.0123 44.1732 9.69584V0H39.2628V13.5809C40.3654 13.1096 41.4679 12.6248 42.5636 12.1265C42.5568 12.0659 42.5534 12.002 42.5534 11.9346H42.55ZM62.9128 3.28245C62.4125 1.9257 57.7268 2.13107 50.6658 3.65951V0H45.7181V9.69248C46.0448 9.80358 46.3374 9.97864 46.5824 10.2076C47.5999 9.69921 48.6037 9.18075 49.5803 8.64883C50.4515 8.18424 50.6658 7.37961 50.6658 6.93522V4.29243C55.9947 3.16798 59.5167 2.93232 59.857 3.82447C60.1701 4.63919 57.7949 6.33596 53.6842 8.4603C51.8671 9.39958 49.7096 10.423 47.297 11.4902C47.3242 11.635 47.3412 11.7831 47.3412 11.9346C47.3412 12.9749 46.6607 13.857 45.7181 14.1768V24.1554C45.7181 24.7379 45.4867 25.125 44.9252 25.125C44.3637 25.125 44.1698 24.7379 44.1698 24.1554V14.1768C43.6968 14.0186 43.2918 13.7156 43.006 13.3251C39.6474 14.7155 35.9518 16.1395 32.0862 17.5266C28.9964 18.6342 25.9951 19.6442 23.1639 20.5397C23.1435 20.5464 23.123 20.5532 23.1026 20.5599C21.3876 21.1019 19.7372 21.6002 18.1685 22.0513V24.0814C18.1685 25.4684 17.6989 25.4684 16.7597 25.4684V3.39691C17.6955 3.39691 18.1685 3.39691 18.1685 4.78396V21.1962C19.6453 20.7417 21.3059 20.2165 23.1026 19.624V4.42036C23.1026 -0.0572324 18.8899 0.0639656 18.8899 0.0639656H11.8323V17.3246C4.12483 21.112 -0.509875 24.4147 0.0447928 25.9195C0.534806 27.246 5.0334 27.1214 11.8323 25.7344V28.8485H18.9205C18.9205 28.8485 23.1026 29.0202 23.1026 24.3305V22.8559C24.0214 22.5832 24.9572 22.2937 25.9066 21.9941V28.8283H30.8101V20.3747C31.0075 20.3074 31.2048 20.2367 31.3988 20.1694L32.7838 28.8283H37.837L35.8362 18.5635C36.9999 18.1258 38.1433 17.6848 39.256 17.2438V24.5258C39.256 28.3031 42.4854 29 44.966 29C47.4467 29 50.659 28.2964 50.659 24.482V12.2208C58.649 8.2886 63.4742 4.82099 62.906 3.28245H62.9128ZM11.8357 23.7212C6.53066 24.9668 3.06654 25.3001 2.75007 24.4079C2.40298 23.4114 5.96918 20.9572 11.8357 18.0215V23.7212Z" fill="#004898"/>
<path fill-rule="evenodd" clip-rule="evenodd" d="M164.891 5.31969V15.4801H162.893V7.50799H159.984V15.4801H157.711V7.50799H154.699V15.4801H152.164V17.4597H168.998V15.4801H167.96V5.72369C167.96 4.16158 167.28 3.39062 165.537 3.39062H152.78V5.31969H164.891Z" fill="#004898"/>
<path fill-rule="evenodd" clip-rule="evenodd" d="M124.192 3.39844H127.139V17.9523H124.192V10.6804H122.811V17.9523H120.024V16.3195L113.215 16.5552C112.007 16.5754 111.122 15.7 111.102 14.5722V3.39844H118.295V5.43187H114.171V14.5722L119.98 14.3736V3.39844H122.807V8.51906H124.189V3.39844H124.192Z" fill="#004898"/>
<path fill-rule="evenodd" clip-rule="evenodd" d="M90.1133 3.3979V5.43133H102.677L102.687 8.81478H89.5586V10.6799H96.0308V13.0298H89.9465V14.9285H102.792V18.1908H105.994V14.5549C105.994 13.7536 105.515 13.0298 104.487 13.0298H99.5222V10.6799H106.76V8.80804H105.766L105.777 5.83196C105.777 4.15875 104.712 3.39453 103.49 3.39453H90.1099L90.1133 3.3979Z" fill="#004898"/>
<path fill-rule="evenodd" clip-rule="evenodd" d="M132.261 13.0391V15.0119H144.644V17.9543H147.761V14.8402C147.761 13.837 147.203 13.0424 145.859 13.0424H132.258L132.261 13.0391Z" fill="#004898"/>
<path fill-rule="evenodd" clip-rule="evenodd" d="M144.551 3.39844V12.2897H147.647V8.97018H149.91V6.99061H147.647V3.39844H144.551Z" fill="#004898"/>
<path fill-rule="evenodd" clip-rule="evenodd" d="M140.827 5.65713H143.358L143.341 3.7752H139.272V2.73828L135.889 2.74838V3.7752H131.496L131.523 5.65713H133.882C132.442 6.33046 131.503 7.41114 131.503 8.62985C131.503 10.6734 134.123 12.3264 137.356 12.3264C140.589 12.3264 143.209 10.67 143.209 8.62985C143.209 7.40777 142.27 6.33046 140.827 5.65713ZM137.352 10.532C135.828 10.532 134.596 9.6331 134.596 8.52549C134.596 7.41787 135.828 6.51562 137.352 6.51562C138.877 6.51562 140.112 7.41787 140.112 8.52549C140.112 9.6331 138.877 10.532 137.352 10.532Z" fill="#004898"/>
<path fill-rule="evenodd" clip-rule="evenodd" d="M78.4991 5.43187V3.39844H68.2734V9.72767C68.2734 10.6468 68.8792 11.4716 69.9987 11.4716L81.7794 11.0339V9.05098L71.3428 9.48864V5.43187H78.5025H78.4991Z" fill="#004898"/>
<path d="M79.3022 15.9713H72.3229V12.8438H69.0664V15.9107C69.0664 17.4324 69.747 17.9475 70.6249 17.9543H84.2772V15.9747H79.2988L79.3022 15.9713Z" fill="#004898"/>
<path d="M86.6336 10.1148V8.0814H84.2788V3.39844H81.1992V13.8854H84.2788V10.1148H86.6336Z" fill="#004898"/>
<path d="M69.5938 20.4375H72.0881C72.4896 20.4375 72.8503 20.5385 73.1702 20.7405C73.49 20.9425 73.65 21.2556 73.65 21.6798V25.5244C73.65 25.915 73.5002 26.2213 73.2042 26.4402C72.9081 26.659 72.5406 26.7667 72.1051 26.7667H69.5938V20.4375ZM72.1391 21.5788C72.1391 21.5013 72.1085 21.4307 72.0472 21.3701C71.986 21.3095 71.9043 21.2691 71.809 21.2522C71.7988 21.2455 71.6797 21.2455 71.4517 21.2489C71.2237 21.2489 71.108 21.2522 71.0944 21.2522V25.9621H71.4449C71.6695 25.9621 71.7852 25.9621 71.7954 25.952C71.8907 25.9352 71.9724 25.8981 72.037 25.8409C72.1017 25.7837 72.1357 25.7096 72.1357 25.6254V21.5788H72.1391Z" fill="#004898"/>
<path d="M76.7829 26.7729H75.2891L76.7489 20.4336H78.6171L80.0769 26.7729H78.583L77.6847 22.3088L76.7863 26.7729H76.7829ZM76.9769 25.0526V24.1806H78.5456V25.0526H76.9769Z" fill="#004898"/>
<path d="M84.7401 26.7612L83.1033 23.0243V26.7612H81.8477V20.4219H83.5525L85.0293 24.2497V20.4219H86.2782V26.7612H84.7435H84.7401Z" fill="#004898"/>
<path d="M90.8698 26.7729L89.7673 24.4062V26.7729H88.2734V20.4336H89.7673V22.5478L90.9311 20.4336H92.4317L90.8868 23.3221L92.6087 26.7729H90.8698Z" fill="#004898"/>
<path d="M94.1016 21.6317C94.1016 21.295 94.2513 21.0122 94.5507 20.7833C94.8502 20.5544 95.2279 20.4264 95.6805 20.4062H96.538C96.994 20.4231 97.3785 20.5476 97.6814 20.7766C97.9876 21.0055 98.1408 21.2883 98.1408 21.625V25.6447C98.1408 26.0016 97.991 26.281 97.695 26.4763C97.3989 26.6715 97.011 26.7759 96.538 26.786H95.6907C95.2381 26.7691 94.8604 26.6513 94.5575 26.4392C94.2547 26.2238 94.105 25.9612 94.105 25.6548V21.6351L94.1016 21.6317ZM96.6707 21.4735C96.6707 21.423 96.6537 21.3826 96.6231 21.3523C96.5925 21.322 96.5482 21.3051 96.4904 21.2984C96.4836 21.2917 96.4223 21.2883 96.3032 21.2849C96.1841 21.2849 96.1195 21.2816 96.1093 21.2816H95.9153C95.7962 21.2816 95.7315 21.2816 95.7213 21.2917C95.6703 21.2984 95.6294 21.3186 95.5988 21.3523C95.5682 21.3859 95.5512 21.423 95.5512 21.4701V25.7188C95.5512 25.7592 95.5682 25.7928 95.5988 25.8265C95.6294 25.8602 95.6669 25.8837 95.7145 25.8938C95.7247 25.9006 95.7928 25.9039 95.9153 25.9107C96.0378 25.9174 96.1024 25.9174 96.1161 25.9174C96.1297 25.9174 96.1943 25.9174 96.3168 25.9107C96.4393 25.9039 96.5006 25.9006 96.5074 25.8938C96.5584 25.8837 96.5993 25.8602 96.6299 25.8265C96.6605 25.7928 96.6775 25.7558 96.6775 25.7188V21.4802L96.6707 21.4735Z" fill="#004898"/>
<path d="M100.129 21.6317C100.129 21.295 100.279 21.0122 100.578 20.7833C100.878 20.5544 101.255 20.4264 101.708 20.4062H102.565C103.025 20.4231 103.406 20.5476 103.712 20.7766C104.018 21.0055 104.172 21.2883 104.172 21.625V25.6447C104.172 26.0016 104.022 26.281 103.726 26.4763C103.43 26.6715 103.042 26.7759 102.569 26.786H101.721C101.269 26.7691 100.891 26.6513 100.588 26.4392C100.285 26.2238 100.136 25.9612 100.136 25.6548V21.6351L100.129 21.6317ZM102.701 21.4735C102.701 21.423 102.684 21.3826 102.654 21.3523C102.623 21.322 102.579 21.3051 102.521 21.2984C102.514 21.2917 102.453 21.2883 102.334 21.2849C102.215 21.2849 102.15 21.2816 102.14 21.2816H101.946C101.827 21.2816 101.762 21.2816 101.752 21.2917C101.701 21.2984 101.66 21.3186 101.63 21.3523C101.599 21.3859 101.582 21.423 101.582 21.4701V25.7188C101.582 25.7592 101.599 25.7928 101.63 25.8265C101.66 25.8602 101.698 25.8837 101.745 25.8938C101.755 25.9006 101.824 25.9039 101.943 25.9107C102.065 25.9174 102.13 25.9174 102.143 25.9174C102.157 25.9174 102.222 25.9174 102.344 25.9107C102.467 25.9039 102.528 25.9006 102.535 25.8938C102.586 25.8837 102.627 25.8602 102.657 25.8265C102.688 25.7928 102.705 25.7558 102.705 25.7188V21.4802L102.701 21.4735Z" fill="#004898"/>
<path d="M108.749 26.7729L107.646 24.4062V26.7729H106.152V20.4336H107.646V22.5478L108.807 20.4336H110.307L108.762 23.3221L110.484 26.7729H108.745H108.749Z" fill="#004898"/>
<path d="M117.04 20.4375V25.7668C117.04 25.8106 117.057 25.8476 117.091 25.8813C117.125 25.9116 117.169 25.9318 117.227 25.9453C117.237 25.952 117.302 25.952 117.417 25.952H117.795C117.914 25.952 117.976 25.952 117.982 25.9453C118.033 25.9352 118.074 25.9116 118.108 25.8813C118.142 25.851 118.159 25.814 118.159 25.7668V20.4375H119.653V25.686C119.653 26.0395 119.5 26.3122 119.201 26.5142C118.898 26.7129 118.503 26.8172 118.016 26.8307H117.203C116.757 26.8206 116.366 26.7263 116.036 26.5445C115.706 26.3661 115.539 26.0833 115.539 25.6961V20.4409H117.04V20.4375Z" fill="#004898"/>
<path d="M124.545 26.7612L122.908 23.0243V26.7612H121.652V20.4219H123.357L124.834 24.2497V20.4219H126.079V26.7612H124.545Z" fill="#004898"/>
<path d="M127.777 26.7667V20.4375H129.271V26.7667H127.777Z" fill="#004898"/>
<path d="M134.548 26.7729H132.435L131.203 20.4336H132.653L133.493 24.6217L134.317 20.4336H135.783L134.545 26.7729H134.548Z" fill="#004898"/>
<path d="M137.66 26.7667V20.4375H141.189V21.2421H139.154V22.9557H141.053V23.7199H139.154V25.9621H141.209V26.7667H137.664H137.66Z" fill="#004898"/>
<path d="M145.727 26.7836C145.713 26.6758 145.713 26.558 145.723 26.4233C145.73 26.2887 145.737 26.0429 145.737 25.686V25.2989C145.737 25.0767 145.737 24.8107 145.734 24.5111C145.734 24.2081 145.73 24.0566 145.73 24.0499C145.73 23.9657 145.689 23.895 145.611 23.831C145.533 23.7704 145.438 23.7368 145.322 23.73H144.634V26.7768H143.141V20.4375H145.611C146.03 20.4375 146.394 20.5217 146.71 20.6866C147.027 20.8516 147.183 21.1277 147.183 21.5114V22.3262C147.183 22.5349 147.095 22.7302 146.921 22.9187C146.744 23.1072 146.526 23.2385 146.258 23.316C146.523 23.3732 146.744 23.4977 146.925 23.6997C147.105 23.8984 147.193 24.1172 147.193 24.3596V25.4908C147.193 25.9217 147.193 26.2213 147.187 26.393C147.18 26.5647 147.193 26.6927 147.231 26.7836H145.737H145.727ZM145.727 21.5788C145.727 21.4946 145.686 21.4205 145.608 21.3532C145.529 21.2859 145.434 21.2489 145.318 21.2455H144.631V22.9658H145.318C145.431 22.9557 145.526 22.9187 145.608 22.8581C145.686 22.7975 145.727 22.7201 145.727 22.6325V21.5821V21.5788Z" fill="#004898"/>
<path d="M150.185 24.3698V25.6458C150.185 25.703 150.202 25.7468 150.239 25.7838C150.277 25.8208 150.324 25.8444 150.389 25.8545C150.399 25.8612 150.467 25.8646 150.583 25.8713C150.702 25.8781 150.767 25.8781 150.777 25.8781C150.794 25.8781 150.862 25.8781 150.981 25.8713C151.1 25.8646 151.161 25.8612 151.168 25.8545C151.23 25.8444 151.277 25.8208 151.308 25.7838C151.338 25.7468 151.355 25.703 151.355 25.6458V25.1576C151.355 24.996 151.233 24.8277 150.991 24.6493C150.746 24.4742 150.556 24.3227 150.416 24.1981C149.783 23.6224 149.361 23.2252 149.147 23.0064C148.933 22.7875 148.827 22.562 148.827 22.3263V21.6395C148.827 21.2961 148.984 21.01 149.293 20.7777C149.603 20.5454 149.994 20.4242 150.464 20.4141H151.226C151.655 20.4208 152.012 20.5319 152.298 20.7474C152.584 20.9628 152.727 21.2254 152.727 21.5318V22.7236H151.352V21.5149C151.352 21.4712 151.338 21.424 151.315 21.3803C151.291 21.3365 151.253 21.3062 151.209 21.2961C151.202 21.2894 151.138 21.286 151.019 21.2826C150.896 21.2826 150.831 21.2793 150.818 21.2793H150.617C150.501 21.2793 150.437 21.2793 150.426 21.286C150.369 21.3096 150.328 21.3365 150.294 21.3702C150.263 21.4038 150.246 21.4644 150.246 21.5553L150.256 22.1512C150.263 22.3128 150.341 22.4576 150.495 22.5855C150.648 22.7101 150.797 22.838 150.944 22.966C151.566 23.5214 152.039 23.9288 152.366 24.1914C152.689 24.454 152.853 24.7267 152.853 25.0061V25.5448C152.853 25.8915 152.696 26.1844 152.38 26.4235C152.067 26.6625 151.669 26.7837 151.189 26.7972H150.399C149.947 26.7871 149.569 26.6726 149.269 26.4571C148.97 26.2417 148.82 25.9723 148.82 25.6559V24.3732H150.178L150.185 24.3698Z" fill="#004898"/>
<path d="M154.543 26.7667V20.4375H156.037V26.7667H154.543Z" fill="#004898"/>
<path d="M160.646 21.2522V26.7667H159.152V21.2522H158.039V20.4375H161.755V21.2522H160.642H160.646Z" fill="#004898"/>
<path d="M167.224 23.0629L166.646 24.5072V26.7729H165.145V24.5476C165.138 24.4533 165.084 24.2513 164.975 23.9416C164.866 23.6352 164.767 23.3423 164.669 23.0697C164.59 22.834 164.43 22.4603 164.192 21.9452C163.954 21.4301 163.753 20.9285 163.59 20.4336H165.016L165.999 22.935L167.085 20.4336H168.425L167.221 23.0629H167.224Z" fill="#004898"/>
</g>
<defs>
<clipPath id="clip0_5107_31022">
<rect width="169" height="29" fill="white"/>
</clipPath>
</defs>
</svg>
