<svg width="152" height="41" viewBox="0 0 152 41" fill="none" xmlns="http://www.w3.org/2000/svg">
<g clip-path="url(#clip0_5107_31055)">
<path d="M124.391 14.7362H110.152V17.47H124.24V22.5791H127.43V14.7305H124.391V14.7362Z" fill="#7C0019"/>
<path d="M115.918 13.4071C119.05 13.4071 121.596 10.9913 121.596 8.01483C121.596 7.01497 121.278 6.06135 120.699 5.23487H122.627V2.61675H117.412V0.605469H114.303V2.61675H108.973V5.23487H111.068C110.478 6.06135 110.148 7.01497 110.148 8.01483C110.148 10.9335 112.787 13.4071 115.913 13.4071H115.918ZM115.918 10.8063C114.437 10.8063 113.238 9.59842 113.238 8.11886C113.238 6.6393 114.442 5.43138 115.918 5.43138C117.394 5.43138 118.598 6.6393 118.598 8.11886C118.598 9.59842 117.394 10.8063 115.918 10.8063Z" fill="#7C0019"/>
<path d="M127.412 2.21875H124.223V13.5351H127.412C127.412 13.5351 127.412 9.68591 127.412 9.40849H129.53V6.57652H127.412V2.21875Z" fill="#7C0019"/>
<path d="M57.6888 7.48785V2.51746L57.683 2.36719H41.899V5.14136H54.5459V10.2216C54.5459 10.2851 54.5053 16.5675 53.585 18.1569H49.5566V10.9729H46.5178V18.1569H39.7227V20.931H59.703V18.1569H56.7048C56.9479 17.3766 57.6946 14.4291 57.6946 7.48785H57.6888Z" fill="#7C0019"/>
<path d="M148.984 18.1569C149.216 17.446 149.991 14.562 149.991 7.35492V4.99687L150.014 2.51746V2.36719H134.196V5.14136H146.837V10.106C146.837 11.4931 146.669 16.8565 145.847 18.1569H144.273V11.0596H141.234V18.1569H138.936V11.0596H135.897V18.1569H132.008V20.931H151.988V18.1569H148.973H148.984Z" fill="#7C0019"/>
<path d="M77.8933 2.11328V5.72549H74.5131V8.35518H77.8933V11.3952H74.5131V14.0249H77.8933V16.0535C76.7241 17.2152 73.888 17.1516 73.859 17.1516H66.7745V11.9096H73.1992V2.19997H63.3711V4.8759H70.1605V9.13541H63.5795V9.18743H63.5274V17.4406C63.62 19.6599 65.6921 19.9027 65.7153 19.9085C65.7326 19.9085 73.4828 19.8507 73.4828 19.8507C76.0817 19.8507 77.4419 19.371 77.8875 19.1802V22.3243H81.0767V2.11328H77.8875H77.8933Z" fill="#7C0019"/>
<path d="M101.624 2.14844V9.37285H99.6097V2.14844H96.6925V15.9962C95.3844 16.84 93.075 16.788 93.0518 16.7822H89.3359V4.95729H94.1342V2.29293H86.1641V16.9729C86.193 19.279 88.3288 19.5217 88.3462 19.5275C88.3809 19.5275 90.5109 19.5737 92.693 19.4755C94.823 19.3714 96.0269 19.042 96.6925 18.7415V22.3017H99.6097V12.199H101.624V22.3017H104.541V2.14844H101.624Z" fill="#7C0019"/>
<path d="M48.8042 34.6769C48.538 34.4746 48.2891 34.2897 47.745 33.7233C47.745 33.7233 45.4587 31.1976 45.1114 30.8162C45.1983 30.7064 47.7682 27.5681 47.7682 27.5681L47.9186 27.4062H46.6221L43.7339 30.9722V27.4062H42.4258V34.937H43.7339V31.082L46.7495 34.4284C46.9983 34.7636 47.4498 34.937 48.0749 34.937H49.1515L48.8968 34.752L48.7984 34.6769H48.8042Z" fill="#7C0019"/>
<path d="M52.9411 27.1798C51.7893 27.174 50.7995 27.5612 50.0008 28.3299C49.202 29.0986 48.7969 30.0406 48.7969 31.133C48.7969 32.2831 49.202 33.2483 49.995 33.9996C50.7648 34.7394 51.7198 35.115 52.8369 35.115C53.954 35.115 54.9206 34.7278 55.7078 33.9649C56.5008 33.1962 56.9059 32.2253 56.9059 31.0809C56.9059 30.0291 56.5355 29.1159 55.8004 28.3703C55.0364 27.5959 54.0756 27.1971 52.9469 27.1855M52.8832 34.1267C52.0961 34.1267 51.4304 33.7973 50.9153 33.15C50.4291 32.5489 50.186 31.8323 50.186 31.0289C50.186 30.2256 50.4349 29.5031 50.9211 28.9656C51.4073 28.4339 52.0613 28.1623 52.8659 28.1623C53.6704 28.1623 54.3071 28.4859 54.8107 29.1275C55.2737 29.7227 55.511 30.451 55.511 31.2948C55.511 32.1386 55.2737 32.7975 54.8049 33.3234C54.3187 33.8551 53.6704 34.1267 52.889 34.1267H52.8832Z" fill="#7C0019"/>
<path d="M67.4076 31.3282C67.5639 31.3282 69.8328 31.3282 69.8328 31.3282V30.3399C69.8328 30.3399 67.5639 30.3399 67.4076 30.3399V28.3864C67.9401 28.3749 70.3769 28.3864 70.4001 28.3864H70.4869V27.375H66.0938V27.4559V34.9231H70.7936L70.9557 33.8654C70.9557 33.8654 67.5697 33.8654 67.4076 33.8654V31.3224V31.3282Z" fill="#7C0019"/>
<path d="M115.351 31.3282C115.507 31.3282 117.77 31.3282 117.77 31.3282V30.3399C117.77 30.3399 115.507 30.3399 115.351 30.3399V28.3864C115.883 28.3749 118.314 28.3864 118.343 28.3864H118.424V27.375H114.031V27.4559V34.9231H118.731L118.893 33.8654C118.893 33.8654 115.507 33.8654 115.345 33.8654V31.3224L115.351 31.3282Z" fill="#7C0019"/>
<path d="M76.1307 27.3828H74.921L71.8359 34.9367H73.0051C73.0051 34.9367 74.0065 32.2723 74.0412 32.1683H76.7616C76.8021 32.2723 77.8208 34.9367 77.8208 34.9367H79.2678L76.1828 27.3828H76.1249M76.3448 31.1626H74.4058C74.4811 30.9661 75.2567 29.0126 75.384 28.6832C75.5114 29.0126 76.2696 30.9719 76.3448 31.1626Z" fill="#7C0019"/>
<path d="M91.18 27.3867H90.2713V32.045C90.2771 33.4321 89.953 34.1834 88.2455 34.1834H88.0487C86.9142 34.1834 86.3354 33.461 86.3354 32.045L86.3412 27.3867H85.0273V32.045C85.0273 32.6114 85.0447 32.9986 85.091 33.2298C85.172 33.6575 85.3457 34.0216 85.6177 34.3164C86.1155 34.8539 86.8216 35.1313 87.7188 35.1313H88.5638C89.461 35.1313 90.1729 34.8539 90.6649 34.3164C90.9369 34.0216 91.1164 33.6575 91.1916 33.2298C91.2379 32.9986 91.2611 32.6114 91.2611 32.045V27.3867H91.1743H91.18Z" fill="#7C0019"/>
<path d="M99.2815 27.3867V27.4676C99.2815 27.4676 99.2699 32.49 99.2641 32.9351C98.9863 32.5767 94.8884 27.3867 94.8884 27.3867H93.7539V34.9521H94.7379C94.7379 34.9521 94.7437 29.739 94.7437 29.294C95.0215 29.6523 99.1773 34.9463 99.1773 34.9463H100.265V27.3867H99.2757H99.2815Z" fill="#7C0019"/>
<path d="M102.828 27.3867V34.9521H104.13L104.136 27.3867H104.049H102.828Z" fill="#7C0019"/>
<path d="M134.234 27.3867V29.057V33.2934L134.246 34.9521H135.548V33.2934V29.0512V27.4676V27.3867H135.467H134.234Z" fill="#7C0019"/>
<path d="M111.476 27.3867C111.476 27.3867 109.456 32.912 109.305 33.3165C109.16 32.912 107.175 27.3867 107.175 27.3867H105.688L108.512 34.9579H109.699L112.627 27.3867H111.476Z" fill="#7C0019"/>
<path d="M131.69 31.1137L130.672 30.6166L129.804 30.189C129.167 29.8537 128.843 29.4896 128.843 29.1082C128.843 28.7845 128.987 28.5476 129.283 28.3857C129.514 28.2528 129.838 28.195 130.243 28.2066C130.903 28.2239 131.58 28.4204 131.934 28.6921L132.067 28.7961V27.4552L132.009 27.4379C131.476 27.2703 130.903 27.1836 130.301 27.1836C129.52 27.1836 128.854 27.3396 128.333 27.6402C127.708 27.9985 127.39 28.5302 127.39 29.218C127.39 29.9058 127.737 30.501 128.438 30.9518C128.443 30.9518 128.814 31.1368 128.814 31.1368L130.324 31.8766C130.961 32.2118 131.279 32.599 131.279 33.0383C131.279 33.3677 131.106 33.6336 130.759 33.8416C130.446 34.0266 130.11 34.1248 129.751 34.119C128.935 34.119 128.177 33.911 127.483 33.5122L127.332 33.4255L127.529 34.7432L127.575 34.7606C128.189 34.986 128.877 35.1016 129.618 35.1016C130.544 35.1016 131.343 34.8588 131.91 34.408C132.449 33.9745 132.721 33.3966 132.721 32.6915C132.721 32.0789 132.368 31.5471 131.673 31.1079L131.69 31.1137Z" fill="#7C0019"/>
<path d="M136.939 27.3534V28.3475C136.939 28.3475 138.89 28.3475 139.046 28.3475V34.9246H140.354C140.354 34.9246 140.354 28.5093 140.354 28.3475C140.511 28.3475 142.507 28.3475 142.507 28.3475V27.3477H136.934L136.939 27.3534Z" fill="#7C0019"/>
<path d="M148.849 27.3709C148.849 27.3709 146.916 30.3474 146.777 30.5555C146.649 30.3474 144.751 27.3594 144.751 27.3594H143.246C143.246 27.3594 145.943 31.5958 145.972 31.6362C145.972 31.6882 145.966 34.9306 145.966 34.9306H147.28C147.28 34.9306 147.28 31.6882 147.28 31.6362C147.309 31.5958 150.122 27.3652 150.122 27.3652H148.855L148.849 27.3709Z" fill="#7C0019"/>
<path d="M63.4812 33.2259C63.4812 33.2259 62.2252 31.6597 61.9126 31.2667C62.1731 31.1742 62.6303 30.9661 62.9718 30.6078C63.3538 30.2148 63.5448 29.764 63.5448 29.2727C63.5448 28.7179 63.3365 28.2613 62.9197 27.9203C62.4856 27.562 61.8895 27.3828 61.137 27.3828H58.625V34.9309H59.9736V34.8153C59.9389 34.561 59.9389 34.1738 59.9389 33.2779V28.3191C61.1717 28.3075 61.6637 28.4636 61.8547 28.5965C62.1152 28.7815 62.2367 29.0473 62.2367 29.4056C62.2367 30.2437 61.6232 30.7407 60.3672 30.9257L60.2225 30.9488L62.8734 34.3356C63.186 34.7286 63.649 34.9251 64.2394 34.9251H65.3218L65.096 34.7748C64.5578 34.4049 63.9732 33.8443 63.487 33.2201L63.4812 33.2259Z" fill="#7C0019"/>
<path d="M124.997 33.2259C124.997 33.2259 123.741 31.6597 123.428 31.2667C123.689 31.1742 124.14 30.9661 124.487 30.6078C124.864 30.2148 125.06 29.764 125.06 29.2727C125.06 28.7179 124.852 28.2613 124.435 27.9203C124.001 27.562 123.405 27.3828 122.653 27.3828H120.141V34.9309H121.489V34.8153C121.455 34.561 121.455 34.1911 121.455 33.2779V28.3191C122.687 28.3075 123.179 28.4636 123.37 28.5965C123.631 28.7815 123.752 29.0473 123.752 29.4056C123.752 30.2437 123.139 30.7407 121.883 30.9257L121.738 30.9488L124.389 34.3356C124.702 34.7286 125.165 34.9251 125.755 34.9251H126.837L126.617 34.7748C126.079 34.4049 125.489 33.8443 125.003 33.2201L124.997 33.2259Z" fill="#7C0019"/>
<path d="M30.0041 0.53125V22.1987C30.0041 22.1987 30.1719 30.0242 24.7428 34.538C24.7428 34.538 20.2686 38.1618 15.2967 40.4678H15.2446C10.0932 38.2543 5.87949 34.538 5.87949 34.538C0.444512 30.0242 0.531333 22.1987 0.531333 22.1987V0.53125H30.0041Z" fill="#D7C9B1"/>
<path d="M30.0053 0H1.57806e-06V22.1992C1.57806e-06 22.5228 -0.0231505 30.3252 5.53917 34.9488L5.52759 34.9373C5.70123 35.0933 9.86284 38.7344 15.0316 40.9595L15.1358 41H15.4136L15.5178 40.948C20.4955 38.6419 25.0333 34.9835 25.0796 34.9488C30.6477 30.3194 30.5493 22.5171 30.5378 22.1818V0H30.0053ZM29.4728 1.05765V22.2454C29.4728 22.8985 29.357 30.0131 24.4024 34.1339C24.3619 34.1628 20.0382 37.6479 15.2631 39.9019C10.3375 37.7403 6.26846 34.1802 6.22795 34.1455L6.21637 34.1339C1.12288 29.8917 1.05922 22.4824 1.05922 22.2107V1.05765H29.4728Z" fill="#7C0019"/>
<path d="M29.8882 12.1828H0.53125V0.53125H29.8882V12.1828Z" fill="#7C0019"/>
<path d="M1.12109 1.13281V1.34666H29.4825V1.13281H1.12109Z" fill="#D7C9B1"/>
<path d="M1.12109 7.19531V7.40916H29.4825V7.19531H1.12109Z" fill="#D7C9B1"/>
<path d="M1.05859 10.8125V11.0263H29.42V10.8125H1.05859Z" fill="#D7C9B1"/>
<path d="M12.8787 36.3464H13.2665C13.3186 36.3464 13.3012 36.3002 13.3012 36.3002C13.1449 35.6009 13.2259 35.0518 13.2549 34.89C13.2549 34.89 13.2722 34.8438 13.2144 34.8438H12.8266C12.7745 34.8438 12.7918 34.8842 12.7918 34.8842C12.925 35.4217 12.8729 36.1037 12.8381 36.3002C12.8381 36.3002 12.815 36.3522 12.8729 36.3522L12.8787 36.3464Z" fill="#7C0019"/>
<path d="M14.3269 34.7941C13.7076 34.8518 13.7423 35.5801 13.7423 35.5801C13.7829 36.2389 14.4658 36.3603 14.4658 36.3603C14.2806 36.8631 13.7829 37.0134 13.7829 37.0134C13.6671 37.0596 13.7539 37.0943 13.7539 37.0943C13.9044 37.1463 14.1186 37.0596 14.1186 37.0596C15.0331 36.6493 15.0562 35.6957 15.0562 35.6957C15.0736 34.7247 14.3327 34.7941 14.3327 34.7941M14.5469 36.1349C14.2517 36.1407 14.1764 35.6783 14.1764 35.6783C14.1012 35.1697 14.298 35.1408 14.298 35.1408C14.5064 35.0772 14.599 35.5049 14.599 35.5049C14.7032 36.002 14.5469 36.1291 14.5469 36.1291V36.1349Z" fill="#7C0019"/>
<path d="M16.6236 35.3805C16.6236 35.3805 16.5425 34.7794 15.9753 34.7852C15.9753 34.7852 15.4139 34.7679 15.3907 35.5481C15.3907 35.5481 15.3676 36.3688 16.0795 36.3283C16.0795 36.3283 16.7741 36.2821 16.6294 35.3805M16.0853 36.0683C15.819 36.1665 15.7901 35.6175 15.7901 35.6175C15.7611 35.0973 15.9753 35.0453 15.9753 35.0453C16.1895 34.9933 16.2531 35.3747 16.2531 35.3747C16.3515 35.97 16.0911 36.0683 16.0911 36.0683H16.0853Z" fill="#7C0019"/>
<path d="M16.7931 36.5395C17.395 36.6551 17.5513 36.2332 17.5513 36.2332C17.7423 35.6321 16.9898 35.6032 16.9898 35.6032L17.1114 34.8287C17.1114 34.8287 17.8638 34.8634 18.0664 34.7652C18.0664 34.7652 18.1127 34.7363 18.0896 34.8461C18.0896 34.8461 18.0491 35.1004 17.8002 35.1235L17.4297 35.1524L17.395 35.372C17.395 35.372 18.0375 35.3604 18.0259 36.0482C18.0259 36.0482 18.0028 36.5799 17.3776 36.7129C17.3776 36.7129 17.0825 36.7764 16.7467 36.6377C16.7467 36.6377 16.6947 36.6146 16.7236 36.5741C16.7236 36.5741 16.7467 36.5221 16.7988 36.5337L16.7931 36.5395Z" fill="#7C0019"/>
<path d="M14.5876 22.0534C14.6339 21.9956 14.6975 22.0361 14.7496 22.0534C14.7959 22.065 14.8017 22.1632 14.8249 22.2095C14.8422 22.2442 14.9348 22.3366 14.9406 22.3655C15.0159 22.7123 14.9406 23.1689 14.7844 23.4347C14.7381 23.5156 14.6686 23.5561 14.6165 23.5619C14.5528 23.5619 14.5297 23.4694 14.5065 23.4347C14.4081 23.296 14.4834 22.9608 14.5065 22.8048C14.5297 22.6025 14.3734 22.2788 14.4776 22.1343L14.5876 22.0476V22.0534Z" fill="#7C0019"/>
<path d="M9.84733 22.4205C9.93415 22.3974 10.0557 22.4379 10.1078 22.4205L10.2236 22.3743C10.3567 22.2876 10.484 22.3165 10.6171 22.3281C10.6866 22.3338 10.8834 22.4205 10.9471 22.4263C11.0512 22.4379 11.549 22.4899 12.0815 22.5708C12.0815 22.5708 12.3651 22.5303 12.2899 22.4552C12.3362 22.5072 12.2841 22.4148 12.1741 22.3743L12.1394 22.3338C12.1394 22.3338 12.0468 22.2529 12.2204 22.1951C12.1568 22.2125 12.3362 22.172 12.3651 22.1316C12.4346 22.0564 12.3362 21.9813 12.3362 21.9813C12.0873 21.8946 11.8037 22.0564 11.4275 22.016C11.2422 21.9986 10.976 21.8946 10.7155 21.9351C10.4319 21.9871 10.0152 22.1489 9.8126 22.2992C9.8126 22.2992 9.71999 22.4668 9.85312 22.4205H9.84733Z" fill="#7C0019"/>
<path d="M13.0158 20.373C13.2705 20.3556 13.282 20.6215 13.2878 20.5926C13.2589 20.7833 12.7958 20.8007 12.6859 20.9451C12.3617 21.367 12.4949 21.7716 11.725 21.8178C11.725 21.8178 11.5688 21.7832 11.6324 21.7196C11.6787 21.6676 11.864 21.6213 11.9334 21.5751C12.0318 21.5173 12.026 21.3613 12.0897 21.2572C12.1013 21.2341 12.1881 21.2052 12.2112 21.1821C12.4254 20.8931 12.4543 20.5984 12.8306 20.425C12.8479 20.4134 12.9868 20.373 13.0158 20.3672V20.373Z" fill="#7C0019"/>
<path d="M15.4791 19.2325C15.5659 19.1805 15.6527 19.2325 15.7106 19.2845C15.7453 19.3076 16.0232 19.9838 16.0405 20.0474C16.0753 20.2901 16.1042 20.8565 16.0405 21.0357C15.9479 21.29 15.7106 21.4807 15.7627 21.9315C15.7917 22.1974 15.9074 22.3997 16.0174 22.6308C16.029 22.6713 16.1447 22.8909 16.1505 22.9372C16.191 23.1799 16.0637 23.492 16.0405 23.6827C15.9827 24.1682 16.1737 24.6074 16.0984 25.0698C16.0637 25.2721 16 25.3703 15.89 25.4917L15.8032 25.5669C15.7801 25.6131 15.7338 25.6304 15.6933 25.6651L15.6412 25.7171C15.5601 25.7345 15.5486 25.7865 15.5196 25.7865C15.3112 25.8327 15.2707 25.7113 15.2823 25.7402C15.0681 25.1449 15.427 24.4514 15.2418 23.8792C15.2013 23.7463 15.045 23.6134 15.0218 23.4747C14.9524 22.9603 15.4328 22.6886 15.427 22.3419C15.427 22.0934 15.1029 21.7755 15.0276 21.5327C14.935 21.2495 14.8771 20.7005 14.9987 20.3479C15.0276 20.2612 15.1376 20.1168 15.1723 20.0012C15.2302 19.7815 15.3228 19.5966 15.3518 19.4521C15.3633 19.4059 15.3923 19.3423 15.4154 19.3018C15.4212 19.2845 15.4675 19.2325 15.4791 19.2267V19.2325Z" fill="#7C0019"/>
<path d="M21.6169 18.0108C21.9642 17.9703 22.1205 18.109 21.9584 18.4038L21.889 18.4674C21.889 18.4674 21.7674 18.6003 21.7501 18.6176C21.5822 18.739 21.4259 18.8199 21.2928 18.976C21.2465 19.028 21.2118 19.1609 21.1597 19.2072C21.0729 19.2707 20.7429 19.4152 20.6561 19.4326C20.2336 19.5019 19.6606 19.08 19.6027 18.8373C19.5506 18.6292 19.6027 18.4269 19.6953 18.3807C19.8342 18.3113 20.2104 18.346 20.3378 18.3344C20.6619 18.3113 20.8645 18.3287 21.1134 18.242C21.2639 18.1957 21.4375 18.0397 21.6169 18.0166V18.0108Z" fill="#7C0019"/>
<path d="M19.8245 17.8642C19.8245 17.8642 20.0213 17.9451 20.2007 17.9046C20.3223 17.8757 20.5596 17.7659 20.6754 17.7486C20.7448 17.7312 20.8432 17.7659 20.9127 17.7486C21.1037 17.6908 21.4568 17.3151 21.0342 17.2747C20.8779 17.2573 20.4207 17.4307 20.2818 17.4712C20.1371 17.5058 20.0503 17.529 19.9287 17.5925C19.8998 17.6099 19.7319 17.7428 19.7551 17.7197C19.7551 17.7197 19.6451 17.8121 19.8303 17.8642H19.8245Z" fill="#7C0019"/>
<path d="M16.7975 18.5752C16.6759 18.5579 16.6759 18.3498 16.3634 18.4191C16.1492 18.4654 16.0856 18.7833 15.7672 18.7775L15.6109 18.7023C15.472 18.6677 15.3736 18.7197 15.2521 18.6561C14.6964 18.396 15.6862 17.061 16.0045 17.0783C16.0219 17.0783 16.184 17.1361 16.2071 17.1592C16.3055 17.2459 16.3055 17.6158 16.3981 17.7545C16.4676 17.847 16.5833 17.8412 16.6759 17.9105C16.7743 17.9857 16.9653 18.2515 16.9885 18.3845C16.9885 18.3845 17.0406 18.6099 16.7917 18.581L16.7975 18.5752Z" fill="#7C0019"/>
<path d="M21.3945 17.2458C21.3945 17.2458 21.4004 17.2342 21.4063 17.2227C21.3945 17.2458 21.3945 17.2458 21.3945 17.2458Z" fill="#7C0019"/>
<path d="M14.4011 18.6738C14.187 18.7952 13.7123 18.9801 13.6139 19.1882C13.5561 19.298 13.5561 19.3905 13.5155 19.5234C13.5155 19.535 13.4519 19.5581 13.4345 19.5986C13.203 19.5986 13.0004 19.587 12.8036 19.639C12.6473 19.6852 12.4216 19.8471 12.248 19.876C11.8949 19.9338 11.6286 19.7835 11.2987 19.8355C11.154 19.8586 11.0556 20.0147 10.9399 20.0725C10.8357 20.1245 10.7952 20.1245 10.7141 20.1938L10.6389 20.2748C10.6273 20.3094 10.5926 20.3846 10.5694 20.425C10.5 20.5348 10.471 20.6389 10.4537 20.7602C10.4363 20.8701 10.3726 21.1417 10.3148 21.2515C10.2858 21.3035 10.1353 21.4249 10.118 21.4769C10.1064 21.5116 10.0717 21.5463 10.118 21.5983C10.0659 21.5405 10.0774 21.6503 10.3611 21.6676C10.6736 21.6734 11.3566 21.4653 11.3566 21.4653L11.6865 21.292C11.7502 21.2457 12.0049 21.0492 12.057 20.9856C12.2943 20.6909 12.9367 19.6159 13.4287 19.8933L13.5155 19.9569C13.6371 20.1534 13.4866 20.7256 13.394 20.8527L13.284 20.9856C13.1972 21.0145 13.1335 21.2457 13.122 21.3498C13.0988 21.5174 13.1509 21.6734 13.1625 21.7659C13.1856 21.9682 13.2088 22.2282 13.0814 22.4825C13.0525 22.5288 12.983 22.6213 13.0004 22.7542C13.0236 22.9102 13.2435 23.02 13.2782 23.153C13.2956 23.2165 13.3535 23.2281 13.2782 23.3495C13.2377 23.4188 13.0583 23.5286 13.0004 23.5864C12.931 23.6558 12.9888 23.7714 13.0409 23.8176C13.1798 23.939 13.2898 23.9563 13.3998 24.1008C13.5503 24.2973 13.5445 24.4649 13.8744 24.4938C14.1349 24.5169 14.5053 24.5343 14.349 24.1759L14.268 24.043C14.1754 23.8118 14.0133 23.6038 13.9902 23.3495C13.9612 23.0258 14.2217 22.864 14.1117 22.5981C14.0249 22.3958 13.6313 22.419 13.5966 22.1589C13.5792 22.0144 13.7297 21.7023 13.7586 21.5636C13.7876 21.3729 13.7355 21.2515 13.7992 21.0897C13.8397 20.9741 14.0133 20.8412 14.0307 20.6967C14.0654 20.4366 13.8628 20.269 13.9554 19.9858C13.996 19.8413 14.2275 19.8529 14.3143 19.7488C14.4243 19.6043 14.3664 19.4021 14.4301 19.194C14.4358 19.1709 14.4937 19.0495 14.5053 19.0264C14.4995 19.0148 14.5516 18.7605 14.5516 18.7605C14.5169 18.5987 14.4185 18.6681 14.4069 18.6623M11.8949 20.7602C11.6749 20.8123 11.6518 20.3383 11.1193 20.5233C11.0904 20.5348 10.9399 20.6678 10.9283 20.6909C10.8646 20.8296 10.8993 21.1937 10.8299 21.2226C10.8299 21.2226 10.6215 21.2746 10.662 21.0145C10.7257 20.5984 10.8067 20.5233 11.0151 20.3441C11.044 20.321 11.1251 20.2632 11.1656 20.2516C11.4145 20.1938 11.8775 20.2921 11.9643 20.4193C12.0338 20.5233 11.8833 20.7602 11.8949 20.7545V20.7602Z" fill="#7C0019"/>
<path d="M26.3825 17.6318C26.3477 17.4411 25.821 17.4526 25.6069 17.1925C25.5258 17.0885 25.5837 17.0307 25.6069 16.9556C25.6647 16.7302 26.1452 16.8631 26.2609 16.6666C26.3072 16.5799 26.3246 16.3372 26.2899 16.3025C25.9889 15.9326 25.3522 16.1118 24.9065 15.9326C24.6923 15.8459 24.4203 15.6668 24.1946 15.5801C23.911 15.4702 23.691 15.4529 23.4016 15.3431C23.3379 15.3142 23.2106 15.2217 23.1412 15.1928C22.8228 15.0657 22.5739 15.0426 22.2556 14.9039C22.2209 14.8923 22.1225 14.8345 22.0819 14.8172C21.9546 14.7651 21.9141 14.7536 21.781 14.7073C21.289 14.5282 20.6697 14.3721 19.9577 14.4184C19.6452 14.4357 19.2921 14.3779 18.8117 14.5166C18.6438 14.5571 18.4123 14.7016 18.256 14.7478C18.1461 14.7825 18.0535 14.7998 17.9551 14.8403C17.8161 14.8981 17.6946 14.979 17.5036 15.0194C16.9595 15.1408 16.236 15.0079 15.6861 15.1004C15.2057 15.1755 14.9337 15.476 14.5401 15.6147C14.4186 15.6552 14.3723 15.6436 14.2507 15.6841C14.1813 15.7072 14.0192 15.7534 13.9613 15.7823C13.7992 15.869 13.6893 15.8922 13.504 15.9673C13.4114 16.0077 13.3015 16.0944 13.2089 16.1349C13.0757 16.1985 13.0699 16.2216 12.96 16.2967L12.8732 16.3603C12.8732 16.3603 12.6821 16.5279 12.659 16.5568C12.5837 16.6377 12.5085 16.7475 12.4448 16.8342C12.2423 17.0712 11.9413 17.3602 11.6924 17.5451C11.5998 17.6087 11.5361 17.5971 11.4551 17.6665C11.3625 17.7358 11.2756 17.8167 11.1888 17.8861C10.9805 18.0364 10.7721 18.1346 10.5464 18.256L10.4017 18.3542C10.2106 18.4814 10.2164 18.5334 10.0139 18.6605C9.88073 18.7472 9.82864 18.8859 9.70709 18.9842C9.62605 19.0478 9.53923 19.2385 9.48135 19.3194C9.23247 19.6835 9.13986 20.2152 8.96043 20.666C8.90834 20.7932 8.47423 21.4174 8.37005 21.4578L8.28901 21.533C8.22535 21.585 8.22535 21.6023 8.17325 21.6543C8.04592 21.7699 7.91858 21.8335 7.82018 21.9722C7.73915 22.082 7.69285 22.2034 7.6176 22.3248C7.50184 22.5097 7.31662 22.7178 7.22401 22.9201C7.1835 22.9952 7.16034 23.0703 7.1314 23.1397C7.11983 23.1512 7.11404 23.1628 7.10825 23.1628C7.06195 23.2264 6.97513 23.4807 6.97513 23.4807C6.88831 23.683 6.67994 23.7986 6.40211 24.1916C6.07798 24.2147 4.96667 23.9315 4.20844 23.5732C4.37629 23.7639 5.22714 24.3303 6.22268 24.4401C6.15901 24.5383 6.15322 24.6366 6.03167 24.6655C5.6323 24.7637 4.94352 24.5441 4.01164 24.2205C4.06374 24.3476 4.88564 24.8273 6.09534 24.9024C5.91591 25.1105 4.25474 25.0585 2.95822 24.7059C2.90613 24.8446 4.57887 25.2145 5.49917 25.203C5.3429 25.2839 4.93195 25.3764 4.6657 25.4746C4.24896 25.4284 3.66436 25.3532 3.5486 25.3128C3.57175 25.3995 3.98849 25.5093 4.32999 25.5902C4.00007 25.7058 3.51387 25.7752 3.32287 25.8156C3.46178 25.8503 3.98849 25.7636 4.54993 25.6307C5.03613 25.7231 5.78279 25.8214 6.19374 25.8041C6.08956 25.8561 5.70176 26.1046 5.40078 26.2838C4.61939 26.3589 3.77433 26.4225 3.58912 26.4456C3.6933 26.4629 4.37629 26.4745 5.10559 26.4514C4.65991 26.7114 4.18529 26.9831 3.95955 27.0871C4.30105 27.0004 4.903 26.7692 5.51654 26.4398C6.13007 26.4167 6.70309 26.3704 6.9404 26.2838C6.85937 26.4629 6.36159 27.3125 5.90434 27.509C6.10113 27.4743 6.7436 27.2952 7.1314 26.33C7.27032 26.3878 7.4266 26.4225 7.60602 26.434C7.71021 26.5843 7.94752 26.9831 8.40478 27.0062C8.49738 27.2721 9.34244 28.6476 10.5348 28.1101C10.1933 27.9251 9.98491 27.7286 9.81127 27.1796C10.338 27.1449 11.7387 27.9136 12.1554 29.5665C11.8255 29.4567 11.4088 29.266 11.3683 29.0984C11.2756 29.4798 11.2178 29.9769 12.0686 30.8265C12.086 31.0056 12.0802 31.2253 12.1207 31.4333C12.2596 31.5778 12.4217 31.6876 12.5722 31.8148C12.5837 32.0517 12.549 32.3869 13.1799 32.5661C13.3941 32.7453 14.0829 32.9302 14.187 33.0516C14.3954 33.1152 14.6964 33.1325 14.9221 33.1152C14.9221 33.1152 15.2231 33.0631 15.3041 32.9476C15.4546 32.9418 15.6572 32.936 16.5717 31.9593C16.7627 31.7281 16.5717 30.4681 16.618 30.1618C16.7106 29.9422 16.7454 29.7341 16.8727 29.4625C16.8727 29.4625 16.9942 29.1909 17.2316 29.0868C17.2489 29.081 17.2605 29.081 17.2779 29.0753C17.8046 28.9539 18.4933 29.4509 18.8175 29.5896C18.9332 29.6359 18.9969 29.6128 19.0953 29.6706C19.1416 29.6937 19.2053 29.8035 19.2574 29.8266C19.3731 29.8902 19.4831 29.8728 19.6162 29.9422C19.8072 30.0462 20.1892 30.6011 20.525 30.5375C20.6291 30.5144 20.7102 30.2774 20.8028 30.2196C20.9591 30.1214 21.179 30.1329 21.3179 30.0231C21.48 29.896 21.4105 29.7572 21.4337 29.5839C21.4337 29.5781 21.5089 29.4972 21.5147 29.4625C21.59 29.4567 21.7636 29.4625 21.8736 29.4278C21.8851 29.4278 21.9314 29.37 21.9488 29.3527C22.0183 29.2833 21.9662 29.2082 21.9488 29.1504C21.9257 29.0868 21.7636 29.0117 21.7115 28.9597C21.59 28.8441 21.3874 28.6707 21.3121 28.5262C21.2774 28.4569 21.3237 28.4395 21.2716 28.3644C21.2195 28.2835 21.0806 28.1968 21.0401 28.0927C20.8896 27.7518 20.9475 27.0004 20.878 26.8906C20.8144 26.7866 20.7391 26.8039 20.6754 26.7057C20.5423 26.4976 20.7044 25.8272 20.716 25.5613C20.7275 25.3475 20.5192 25.4804 20.5192 25.4804C20.3455 25.9081 20.3629 26.093 20.3224 26.7057C20.3166 26.7577 20.2413 27.0871 20.2413 27.1391C20.2413 27.353 20.3629 27.7113 20.2819 27.9714C20.2529 28.0523 20.0793 28.2141 19.8478 28.2083C19.7609 28.2083 19.3153 28.0927 19.2169 28.0523C19.1995 28.0407 19.1011 27.9367 19.0953 27.9309C18.8754 27.7575 18.8291 27.9194 18.8175 28.0061C18.8117 28.0985 18.8464 28.1159 18.8638 28.1679C18.8696 28.2199 18.9622 28.4048 18.9506 28.4222C18.9506 28.4395 18.8696 28.6476 18.4586 28.4048C18.1461 28.2199 17.8451 27.6997 17.8277 27.613C17.7872 27.4165 17.8451 27.2663 17.8856 27.1969C18.0419 27.0582 18.2213 27.2489 18.3776 27.3356C18.4181 27.3587 18.5107 27.4223 18.557 27.4339C18.6496 27.4512 18.7943 27.4165 18.8117 27.4165C19.4136 27.3819 20.033 27.6015 20.1372 27.1969C20.2066 26.9426 19.9577 26.8097 19.9114 26.7057C19.8535 26.5785 19.8825 26.5669 19.8535 26.4282C19.8535 26.4167 19.8072 26.3242 19.7957 26.3126C19.732 26.2086 19.7783 26.1161 19.7204 26.0006C19.6567 25.8734 19.4773 25.7925 19.4079 25.6827C19.3037 25.5382 19.3037 25.3532 19.1705 25.2492C18.968 25.0816 18.1576 24.8446 18.065 24.6539C17.9088 24.3534 18.0998 23.8043 18.0245 23.4344C17.984 23.2148 17.9145 23.0934 17.7756 22.9605C17.7235 22.9085 17.7004 22.8276 17.7178 22.7582C17.7525 22.6253 17.8219 22.66 17.8625 22.371C17.8856 22.2092 17.8451 22.0242 17.8625 21.8566C17.8625 21.8277 17.9377 21.5677 17.9435 21.5388C17.9782 21.0995 17.9203 20.6371 17.8277 20.3193C17.7814 20.1632 17.6367 20.0303 17.5904 19.88C17.5499 19.7587 17.5962 19.6835 17.5499 19.5622C17.5094 19.4523 17.3705 19.3772 17.3184 19.2905C17.2084 19.1345 17.2431 18.8628 17.0811 18.7761C16.9595 18.7068 16.919 18.7993 16.9248 18.7761C16.8843 18.9206 16.8958 19.0593 16.9653 19.2501C16.9942 19.331 17.1447 19.4466 17.1679 19.5275C17.1968 19.672 17.1447 19.8511 17.1679 20.0014L17.2431 20.1574C17.3068 20.5562 17.0869 21.0822 16.9306 21.3018C16.8148 21.4463 16.4791 21.637 16.456 21.8566C16.4386 21.9953 16.4965 21.9953 16.5312 22.0531C16.5833 22.1283 16.7454 22.2207 16.7685 22.2901C16.7859 22.3421 16.809 22.3306 16.8264 22.3826L16.8495 22.4924C16.8785 22.7698 16.5138 22.8334 16.6933 23.1628C16.7454 23.2611 16.9132 23.2611 17.0058 23.3189C17.1852 23.4344 17.5267 23.7523 17.5615 24.024C17.5788 24.1453 17.5615 24.7811 17.5267 24.8562C17.4457 25.0296 17 25.0989 17.0521 25.4515C17.11 25.8329 18.1113 25.7231 18.395 25.9254C18.5281 26.0179 18.557 26.2202 18.5975 26.4051C18.6207 26.5034 18.5223 26.5381 18.476 26.5612C18.3718 26.6247 18.2966 26.5727 18.1576 26.6016C17.8335 26.6652 17.3126 26.8155 17.1737 27.0755C17 27.3761 17.2026 27.7922 17.1332 28.139C17.0637 28.4511 16.8264 28.8383 16.6527 29.0926C16.5486 29.2487 16.4154 29.3989 16.3633 29.6185C16.2476 30.0867 16.3286 30.6357 16.2939 31.179H16.2881C16.2881 31.179 16.3113 31.468 16.1145 31.6761C15.9003 31.913 15.1479 32.6181 14.6096 32.6181C14.4128 32.6123 14.3317 32.5488 14.1118 32.3927C13.9729 32.3812 13.6603 32.306 13.4809 32.1153C13.423 32.017 12.8326 31.416 13.2031 31.2484C13.5504 31.0865 14.1176 31.4391 14.378 31.6067C14.4822 31.6067 15.2463 31.6472 16.0566 30.5837C16.0161 30.0289 15.9755 29.318 15.9119 29.1851C15.8308 28.9134 15.3678 28.4337 15.2694 28.1448C15.2057 27.9078 15.1016 27.4512 15.171 27.1333C15.1421 26.7808 14.9163 26.6999 14.8237 26.4109C14.8006 26.3358 14.7658 26.2838 14.7543 26.2606C14.7253 26.1566 14.708 26.0641 14.6443 25.9717C14.5054 25.7578 14.3665 25.7116 14.2391 25.4977C14.106 25.2781 14.1292 25.0065 13.9208 24.8678C13.805 24.7926 13.6545 24.7869 13.5272 24.7117C13.4346 24.6539 13.3188 24.521 13.2089 24.4748C13.0873 24.417 13.0468 24.4054 12.9252 24.3476C12.8616 24.3187 12.7516 24.2667 12.6995 24.2378C12.6416 24.2031 12.5895 24.2378 12.5432 24.1973C12.3927 24.0702 12.5027 23.9488 12.4217 23.7292C12.4159 23.7003 12.3522 23.7003 12.3407 23.6483C12.277 23.6309 12.167 23.5327 12.0802 23.5905C11.9586 23.6772 11.9297 23.6541 11.8545 23.8332C11.8139 23.9546 11.7329 24.3014 11.6519 24.3881C11.5824 24.4748 11.4898 24.5903 11.3798 24.6713C11.2756 24.7233 11.183 24.7175 11.183 24.7175L10.8878 24.758L10.7431 24.9834C10.7431 24.9834 10.5811 24.9602 10.4943 24.9602C10.4711 25.018 10.2743 25.1625 10.2164 25.2203C9.96755 25.3648 9.81127 25.2608 9.79391 25.2088C9.78233 25.1625 9.7013 25.0643 9.86915 24.9602C10.448 24.7984 11.1599 24.024 11.2178 23.8563C11.1425 23.9662 9.9444 24.6308 9.71866 24.7175C9.95597 24.1511 11.4261 23.3246 11.5187 23.2264C11.1425 23.2842 9.8923 24.0413 9.67236 24.3765C9.46399 24.7117 9.22089 24.6192 8.98937 24.6077C8.76363 24.6019 8.781 24.8446 8.77521 24.9891C8.77521 25.1336 8.65945 25.4284 8.75206 25.4804C8.90834 25.6133 9.30771 25.0758 9.44084 25.3648C9.51029 25.6885 8.67681 25.6711 8.68839 25.9312C8.64787 26.0699 9.4582 26.1161 9.6029 26.2606C9.34244 26.4514 8.70575 26.5092 8.52054 26.5207C8.40478 26.5323 8.2948 26.5207 8.23692 26.5207C8.13274 26.5034 7.99382 26.4051 7.87228 26.2086C7.64075 25.7925 8.02855 25.5035 8.04013 25.3995C8.0517 25.2897 7.99382 25.3475 7.98804 25.1741C7.98225 25.0007 8.17904 24.9718 8.23113 24.9313C8.28901 24.8909 8.21377 24.8446 8.23113 24.6713C8.33532 24.284 8.96043 23.8448 8.79836 23.7176C8.65366 23.6425 8.3469 23.9777 8.23113 24.128C7.79703 24.6828 7.29347 24.5094 7.12562 24.5152C6.74361 24.5383 6.81306 24.1222 7.07931 24.1511C7.38608 24.0875 7.36293 23.6656 7.58287 23.7061C7.65233 24.0182 7.31083 24.0586 7.46711 24.128C7.68706 24.2147 7.71021 23.9257 7.77967 23.8101C7.84333 23.6887 8.15589 23.4229 8.12116 23.3593C8.03434 23.3304 7.80282 23.4922 7.70442 23.5732C7.45554 22.949 8.08643 22.475 8.11537 22.2901C8.32374 21.9607 9.48135 21.5445 9.49872 21.0475L9.52766 21.0186C9.52766 21.0186 9.55081 21.007 9.58554 21.0648C9.59133 21.0937 9.59711 21.1284 9.60869 21.1573C9.60869 21.1978 9.60869 21.2324 9.60869 21.2324V21.1862C9.62605 21.2613 9.62027 21.3307 9.62605 21.3134V21.3885C9.63763 21.4347 9.69551 21.4578 9.7013 21.4578C9.72445 21.4578 9.78812 21.4347 9.85179 21.3654C9.86336 21.3538 9.92703 21.2902 9.92703 21.2729C10.037 21.192 10.0602 21.1804 10.1354 21.0706C10.3322 20.7816 9.95018 20.3597 10.0602 19.9667C10.1354 19.7066 10.3727 19.4003 10.3727 19.4003C10.4364 19.2501 10.3322 19.2558 10.3322 19.2558C10.1817 19.2269 10.0717 19.3888 10.0949 19.3714C9.89809 19.5564 9.84021 19.6431 9.69551 19.8916C9.69551 19.8916 9.57396 20.0014 9.53923 19.8511C9.46978 19.6084 9.7476 19.1229 9.83442 19.0651C9.99649 18.9553 10.1643 18.9033 10.3669 18.8224C10.4711 18.7819 10.6216 18.6143 10.7258 18.5854C10.7779 18.5681 10.83 18.5565 10.8821 18.5854C10.8821 18.5854 10.9573 18.6432 10.9226 18.8224C10.9226 18.8224 10.8473 19.0362 10.8705 19.1171C10.8879 19.1691 10.8821 19.2212 10.9978 19.2212C11.2814 19.2212 11.9181 19.1576 12.1033 19.0593C12.1439 19.042 12.1844 18.9784 12.2249 18.9437C12.2828 18.8859 12.2712 18.7935 12.2249 18.7877L12.1033 18.7472C12.1959 18.7357 11.5651 18.7299 11.6692 18.7126C11.5593 18.7299 11.8197 18.4236 11.785 18.2733C11.7734 18.204 11.6519 18.1751 11.6287 18.1173C11.6171 18.0826 11.5477 18.0306 11.6287 17.9959L11.7213 17.9554C11.7503 17.9323 11.785 17.8977 11.8255 17.8745C12.0223 17.7821 12.3812 17.8283 12.5374 17.8745C12.5548 17.8803 12.8095 17.9554 12.8963 18.1924C12.9195 18.2618 12.9368 18.3311 12.9715 18.3889C13.0931 18.5507 13.4404 18.6085 13.643 18.4178C13.6835 18.3774 13.7356 18.2849 13.7645 18.2329C13.9671 17.7647 13.6661 17.4526 13.2841 17.3197C13.1336 17.2677 12.8847 17.2503 12.6937 17.1983C12.5606 17.1579 12.6416 17.0481 12.6764 17.0134L12.7342 16.9614C12.8095 16.8516 13.0468 16.7533 13.1336 16.7244C13.342 16.6435 13.5504 16.5684 13.8455 16.6897C13.8918 16.7071 14.0076 16.7938 14.0365 16.8053C14.2623 16.8631 14.3491 16.8747 14.5517 16.7706C14.6327 16.7302 14.6211 16.7186 14.6327 16.6955C14.708 16.4817 14.5575 16.343 14.5633 16.3661C14.517 16.0829 15.3331 16.4296 15.4604 16.2505C15.582 16.0887 15.5009 15.7766 15.6572 15.661C15.6746 15.6494 15.7672 15.5858 15.7788 15.5858C15.9292 15.5512 16.0624 15.6147 16.1839 15.661L16.3113 15.7245C16.5659 15.8286 16.7917 15.8864 16.9306 16.0944C17.0174 16.2331 17 16.4296 17.0869 16.5684C17.1216 16.6262 17.2084 16.6666 17.2489 16.7244C17.2836 16.7706 17.3531 16.7938 17.4052 16.8227C17.4804 16.8689 17.5094 16.8862 17.602 16.9151C17.6714 16.944 17.7698 17.0481 17.8393 17.077C18.0824 17.1752 18.3718 17.1637 18.6323 17.1579C18.7885 17.1521 18.8811 17.2446 19.0258 17.1983C19.1011 17.1752 19.0779 17.0423 19.0316 16.9845C18.939 16.8631 18.8638 16.892 18.7075 16.8053C18.6438 16.7649 18.5686 16.6435 18.5107 16.6088C18.3313 16.4932 18.0708 16.4759 17.9608 16.2909C17.9435 16.262 17.9261 16.21 17.9203 16.1753L17.874 16.0887C17.6541 15.6436 17.5846 15.3836 17.7988 15.2969C17.9319 15.2506 18.2155 15.2737 18.3544 15.2159C18.3834 15.1986 18.447 15.1119 18.4702 15.0946C18.7828 14.9443 19.3731 14.7709 19.6973 14.9385C19.7957 14.9848 19.6973 15.2333 19.732 15.3315C19.7551 15.372 19.8246 15.4471 19.9056 15.4702C20.5828 15.6552 21.2658 15.6205 21.7636 15.8575C22.0588 15.9962 22.2903 16.2158 22.5566 16.447C22.7881 16.6493 22.516 16.8805 22.7476 16.9498C22.5855 16.9729 22.4466 16.9903 22.4234 16.9036C22.4176 16.8805 22.3656 16.8111 22.3424 16.788C22.163 16.6204 21.9604 16.3603 21.7115 16.2736C21.5842 16.2274 21.5263 16.2678 21.3932 16.2331L21.2311 16.1811C21.0575 16.1349 21.0459 16.1522 20.878 16.1118C20.8028 16.0944 20.6349 16.0077 20.5597 15.9962C20.224 15.9442 20.033 16.0829 19.7262 15.9962C19.5815 15.9557 19.4021 15.7303 19.2863 15.6725C19.1416 15.5916 19.0143 15.5627 18.8522 15.5107C18.7885 15.4934 18.7538 15.4934 18.7075 15.5165C18.6207 15.5685 18.6496 15.6436 18.6959 15.713C18.7191 15.7477 18.7422 15.8055 18.777 15.8286C18.8869 15.9095 19.1127 15.9095 19.1705 16.0251C19.3442 16.3719 19.0895 16.4874 19.049 16.5915C19.0316 16.6551 18.9795 16.7013 19.049 16.788C19.0837 16.8342 19.1648 16.8862 19.2111 16.9036C19.3731 16.9729 19.5005 16.944 19.6452 17.0249C19.7494 17.0827 19.8651 17.2735 19.9982 17.3024C20.3166 17.3717 20.3918 17.1348 20.5539 17.1001C20.7854 17.0481 20.9243 17.1694 21.1906 17.1001C21.2774 17.077 21.3237 16.9729 21.3874 16.944C21.5379 16.8631 21.6884 16.8516 21.7867 16.9036C21.7867 16.9036 21.8909 16.9498 21.7462 17.0249C21.6652 17.0712 21.5957 17.0712 21.5089 17.1116C21.451 17.1405 21.3989 17.2214 21.3932 17.233C21.3642 17.2908 21.3469 17.3717 21.3469 17.3775C21.37 17.4237 21.4047 17.4468 21.4279 17.4584C21.7057 17.5509 21.9835 17.3775 22.2209 17.337C22.3945 17.3081 22.8865 17.337 23.0254 17.4468C23.0254 17.4468 23.1585 17.4757 23.0717 17.7127C23.0196 17.8572 22.7939 17.9612 22.707 18.0768C22.655 18.1462 22.6029 18.2733 22.5508 18.3427C22.4697 18.4525 22.4524 18.4467 22.3656 18.545L22.3077 18.6259C22.2729 18.7299 21.8678 19.0709 21.7925 19.1807C21.7462 19.2501 21.7231 19.3194 21.6768 19.3946C21.6073 19.4986 21.5494 19.5159 21.5147 19.5795C21.3989 19.7471 21.1732 20.0823 20.9822 20.169C20.9012 20.2037 20.7796 20.169 20.6639 20.1401C20.5828 20.117 20.496 19.9725 20.4323 19.9436C20.1545 19.8165 19.8478 19.8511 19.6047 19.7066C19.4831 19.6315 19.3731 19.4234 19.2863 19.3136C19.2284 19.2385 19.1763 19.1056 19.0895 19.0767C18.9448 19.0304 18.6033 19.0767 18.5339 19.198C18.4007 19.4466 18.7422 20.0823 18.7712 20.3482C18.7943 20.5736 18.6901 20.6718 18.7712 20.8568C18.8117 20.955 18.9564 20.9781 19.0085 21.0533C19.2226 21.3885 19.0374 21.8682 19.0895 22.319C19.1069 22.4577 19.1937 22.6311 19.1648 22.8334C19.13 23.1455 18.7249 23.4171 18.8869 23.8968C18.8927 23.9199 18.968 23.9719 18.9738 23.9777C19.0374 24.0066 19.1358 23.9951 19.1995 23.9777C19.3326 23.9315 19.46 23.6714 19.5989 23.5847C19.6104 23.5674 19.6567 23.5443 19.6799 23.5443C19.6973 23.5154 19.732 23.5154 19.7551 23.5038C19.813 23.4576 19.8362 23.4576 19.8709 23.3824C19.9288 23.2553 19.9056 23.1281 19.9519 22.9432C19.9925 22.7929 20.1314 22.5213 20.1487 22.3479C20.195 21.8624 19.8478 20.9203 20.0966 20.7643C20.195 20.7065 20.2876 20.5909 20.4555 20.5678C20.5307 20.5505 20.7681 20.6256 20.8722 20.6198C20.7449 20.9203 21.2195 21.7121 21.179 22.1456C21.0864 23.209 20.3918 23.7928 19.7899 24.3592C19.7204 24.4285 19.7783 24.5037 19.8304 24.5557C19.9519 24.6655 20.2413 24.6192 20.386 24.5961C20.6002 24.5499 20.6986 24.4516 20.8607 24.3996C20.9185 24.3765 20.9938 24.4112 21.0575 24.3996C21.2195 24.3534 21.3584 24.1338 21.451 24.0008C21.451 24.0008 21.642 23.7928 21.6826 24.0702V24.0875C21.6826 24.3418 21.642 24.625 21.6826 24.8735C21.7289 25.1683 22.2729 26.0583 22.5508 26.0988C23.2106 26.1971 22.5334 25.3648 22.5103 25.307C22.4003 25.0585 22.2961 24.6077 22.3135 24.2783C22.3135 24.1569 22.4176 23.9141 22.4292 23.7986C22.435 23.7408 22.4061 23.6136 22.4292 23.5674C22.4813 23.4633 22.8286 23.4287 22.9038 23.29C22.9212 23.2495 22.8923 23.1801 22.9038 23.1339C22.9212 23.0414 22.9907 22.8623 23.0659 22.7814C23.1122 22.7236 23.1817 22.6889 23.2627 22.7814C23.3322 22.8565 23.3495 23.0357 23.4595 23.1628L23.5579 23.2668C23.6737 23.342 23.8647 23.2437 23.8126 23.2553C23.9341 23.2206 23.9225 23.0992 23.9746 23.053C23.9804 23.0472 24.0499 23.0183 24.0499 23.0183C24.3335 22.7236 23.7026 22.4577 23.691 22.1861C23.691 21.8855 23.7605 21.533 23.6563 21.1978C23.6331 21.1169 23.4769 20.9955 23.4595 20.9203C23.419 20.7296 23.5174 20.5273 23.5405 20.406C23.5868 20.1517 23.5 19.7644 23.581 19.6546C23.6273 19.5911 23.7026 19.5506 23.8589 19.5737C23.9573 19.5911 24.0267 19.7587 24.0962 19.8107C24.3566 20.0187 24.6576 20.1343 25.0859 20.0881C25.138 20.0881 25.1843 20.0072 25.1959 19.9841C25.2248 19.9031 25.2191 19.8049 25.167 19.7355C25.0107 19.5275 24.4087 19.3657 24.374 19.2616C24.3509 19.1865 24.2525 19.0825 24.3624 19.0304C24.3046 19.0651 24.7329 19.0189 24.8891 18.9842C25.0917 18.938 25.1033 18.7415 25.248 18.6721C25.4448 18.5681 25.7342 18.6605 25.8442 18.4756C25.9078 18.3542 25.8557 18.1866 25.9194 18.0768C25.9947 17.9381 26.232 17.9092 26.3535 17.7994C26.3882 17.7647 26.3709 17.6434 26.3651 17.6087M10.4827 26.8675C10.4074 26.7808 10.4711 26.6132 10.6158 26.5438C10.8821 26.4167 10.9862 26.5612 11.0441 26.6305C11.2988 27.0293 11.6345 27.5437 11.8776 27.746C11.6519 27.7691 10.801 27.509 10.4827 26.8675ZM12.659 30.8611C12.5201 30.8611 11.6403 30.1214 11.7734 29.659C12.0339 29.8497 12.6185 30.2601 12.6937 30.2543C12.769 30.3005 12.8326 30.8091 12.659 30.8611ZM13.6835 30.8669C13.5677 30.7687 12.7169 29.8671 12.931 29.4452C13.1626 29.6821 13.8166 30.2774 14.0481 30.3352C14.1118 30.5086 14.106 30.9767 13.6835 30.8611M13.7761 27.4281C13.9266 27.6535 14.1292 27.7807 14.1176 28.2661C14.1002 28.3817 14.1407 28.4048 14.2391 28.3991C14.326 28.3759 14.2796 27.8211 14.5517 27.8558C14.7832 27.8905 14.6269 28.2083 14.7369 28.5667C14.7774 28.6938 15.0379 29.1504 14.9684 29.9364C14.9626 30.1387 14.5748 30.4046 14.3549 30.2485C14.1755 30.1387 14.1755 30.0058 14.0713 29.1735C14.025 28.6823 13.4288 28.5147 13.1741 28.2892C12.9195 28.1043 13.0642 28.0118 13.0179 27.6708C12.8732 27.1796 12.3001 26.9484 12.4911 26.6247C12.549 26.5438 12.6069 26.4687 12.7921 26.538C12.8037 26.7808 13.3825 26.9715 13.7761 27.4339M9.69551 25.8734C9.75339 25.8503 10.0081 25.7289 10.0775 25.7058C10.3496 25.6133 10.4885 25.752 10.7374 25.6133C10.7952 25.5786 10.8589 25.4804 10.9168 25.4399C10.9631 25.3995 11.0499 25.4053 11.102 25.3648C11.2409 25.2723 11.4956 24.9776 11.675 24.9487C11.7792 24.9313 11.7734 24.9545 11.8255 24.9602C11.8255 24.9718 11.9008 24.9429 11.8834 25.0989C11.8371 25.3937 12.5259 25.0989 12.9773 25.203C13.2841 25.2781 13.5851 25.3821 13.504 25.5786C13.5156 25.5555 13.4114 25.6422 13.3883 25.6538C13.1741 25.8098 13.0121 25.6364 12.9021 25.6249C12.7169 25.6018 12.5837 25.6596 12.3985 25.6364L12.1728 25.5613C12.0281 25.5555 11.8197 25.6307 11.7155 25.6364C11.5072 25.6538 11.4088 25.5786 11.2178 25.596C11.1252 25.6075 10.9805 25.7231 10.911 25.7463C10.8473 25.7694 10.7779 25.7925 10.72 25.8098C10.6795 25.8214 10.5753 25.8792 10.529 25.8965C10.338 25.989 10.228 25.989 9.99649 26.0526L9.86337 26.0872C9.57396 26.1277 9.6029 25.9254 9.69551 25.8792M8.98937 27.0062C9.30192 26.9311 9.39453 27.012 9.54502 27.3645C9.65499 27.5726 9.88652 27.85 9.97913 27.9829C9.62027 28.0234 9.04725 27.5321 8.89097 27.2663C8.78679 27.1333 8.94306 27.0293 8.99516 27.0004M5.03034 25.5209C5.44129 25.4053 5.80015 25.2897 5.95643 25.203C6.01431 25.203 6.0664 25.203 6.1185 25.1972C6.14165 25.307 6.18216 25.4168 6.24583 25.5266C6.2632 25.5497 6.27477 25.5729 6.28635 25.5902C6.03746 25.5902 5.53969 25.5671 5.02455 25.5266M5.88119 26.2375C6.08956 26.1104 6.29214 25.9717 6.48314 25.8329C6.56996 25.937 6.66257 26.0295 6.77255 26.1219C6.66257 26.1508 6.31529 26.1971 5.88119 26.2375Z" fill="#7C0019"/>
<path d="M9.6943 25.875C9.66961 25.8871 9.66961 25.8871 9.6943 25.875Z" fill="#D7C9B1"/>
<path d="M6.40617 6.26657C6.25568 6.15098 6.11098 6.04117 5.79842 5.71752C5.79842 5.71752 4.48453 4.26685 4.28774 4.04723C4.33983 3.98366 5.81 2.18622 5.81 2.18622L5.89682 2.09375H5.15595L3.50056 4.1397V2.09375H2.75391V6.41106H3.50056V4.1975L5.23119 6.1163C5.37589 6.30703 5.63057 6.40528 5.99521 6.40528H6.61454L6.46405 6.30125L6.40617 6.25501V6.26657Z" fill="#D7C9B1"/>
<path d="M9.95701 1.97266C9.29718 1.97266 8.72995 2.19228 8.27269 2.63152C7.81543 3.07077 7.57812 3.61404 7.57812 4.23823C7.57812 4.8971 7.80965 5.45193 8.2669 5.8854C8.70679 6.30731 9.25666 6.52115 9.89913 6.52115C10.5416 6.52115 11.0915 6.30153 11.5487 5.86228C12.006 5.42304 12.2375 4.8682 12.2375 4.20934C12.2375 3.60826 12.0233 3.08233 11.6008 2.65464C11.1609 2.20962 10.6111 1.97844 9.9628 1.97844M9.92229 5.95475C9.47082 5.95475 9.08881 5.76403 8.79362 5.39414C8.51579 5.04737 8.37688 4.6428 8.37688 4.17466C8.37688 3.70652 8.51579 3.29617 8.7994 2.98985C9.07723 2.68354 9.45345 2.52749 9.91071 2.52749C10.368 2.52749 10.7384 2.71244 11.0278 3.08233C11.2941 3.42332 11.4272 3.83944 11.4272 4.32493C11.4272 4.81041 11.2941 5.18608 11.022 5.48661C10.7442 5.79293 10.3738 5.94897 9.92229 5.94897V5.95475Z" fill="#D7C9B1"/>
<path d="M20.4204 4.35151C20.5072 4.35151 21.8095 4.35151 21.8095 4.35151V3.78512C21.8095 3.78512 20.5072 3.78512 20.4204 3.78512V2.66389C20.7272 2.65811 22.1221 2.66389 22.1395 2.66389H22.1858V2.08594H19.668V2.13217V6.41481H22.3652L22.4578 5.80796C22.4578 5.80796 20.513 5.80796 20.4262 5.80796V4.35151H20.4204Z" fill="#D7C9B1"/>
<path d="M26.4696 2.08203H25.775L24.0039 6.41668H24.6753C24.6753 6.41668 25.2483 4.8851 25.2715 4.82731H26.8343C26.8574 4.8851 27.442 6.41668 27.442 6.41668H28.2755L26.5043 2.08203H26.4754M26.5912 4.25514H25.4799C25.5204 4.14532 25.9661 3.0241 26.0413 2.83337C26.1108 3.0241 26.5506 4.14532 26.5912 4.25514Z" fill="#D7C9B1"/>
<path d="M17.0573 5.43807C17.0573 5.43807 16.3396 4.54224 16.1544 4.31106C16.3049 4.25904 16.5654 4.14345 16.7622 3.93539C16.9821 3.70999 17.0863 3.44991 17.0863 3.16671C17.0863 2.84884 16.9647 2.58876 16.7274 2.39225C16.4785 2.18997 16.137 2.08594 15.7029 2.08594H14.2617V6.41481H15.0373V6.34545C15.0142 6.20096 15.0142 5.97556 15.0142 5.46118V2.61765C15.7203 2.61188 16.0039 2.69857 16.1139 2.77948C16.2644 2.88351 16.3338 3.03378 16.3338 3.24184C16.3338 3.72155 15.9808 4.00474 15.2631 4.11455L15.182 4.12611L16.6985 6.06804C16.8779 6.29344 17.1442 6.40903 17.4857 6.40903H18.105L17.9776 6.32233C17.6709 6.11427 17.3294 5.78484 17.0516 5.43229L17.0573 5.43807Z" fill="#D7C9B1"/>
<path d="M14.3315 9.23702H14.9971V8.96538C14.9971 8.96538 14.3778 8.96538 14.3315 8.96538V8.43367C14.4762 8.43367 15.1418 8.43367 15.1476 8.43367H15.1708V8.15625H13.9727V8.17937V10.2195H15.2576L15.3039 9.93057C15.3039 9.93057 14.3778 9.93057 14.3315 9.93057V9.23702Z" fill="#D7C9B1"/>
<path d="M4.45574 8.15625H4.20685V9.42775C4.20685 9.8092 4.12003 10.0115 3.6512 10.0115H3.59332C3.28076 10.0115 3.12448 9.81498 3.12448 9.42775V8.15625H2.76563V9.42775C2.76563 9.58379 2.76562 9.68783 2.78299 9.7514C2.80614 9.86699 2.85245 9.96524 2.92769 10.0462C3.06082 10.1906 3.25761 10.2658 3.50071 10.2658H3.73223C3.97533 10.2658 4.17212 10.1906 4.30525 10.0462C4.38049 9.96524 4.4268 9.86699 4.44995 9.7514C4.46152 9.68783 4.46731 9.58379 4.46731 9.42775V8.15625H4.44416H4.45574Z" fill="#D7C9B1"/>
<path d="M7.56927 8.15625V8.17937C7.56927 8.17937 7.56927 9.54912 7.56927 9.67049C7.49403 9.57224 6.37115 8.15625 6.37115 8.15625H6.05859V10.2253H6.33063C6.33063 10.2253 6.33063 8.80356 6.33063 8.68219C6.40588 8.78044 7.54612 10.2253 7.54612 10.2253H7.8471V8.16203H7.57506L7.56927 8.15625Z" fill="#D7C9B1"/>
<path d="M9.36328 8.15625V10.2253H9.72214V8.15625H9.69899H9.36328Z" fill="#D7C9B1"/>
<path d="M22.3125 8.15625V8.61283V9.76874V10.2253H22.6656V9.76874V8.61283V8.17937V8.15625H22.6482H22.3125Z" fill="#D7C9B1"/>
<path d="M12.4786 8.15625C12.4786 8.15625 11.9229 9.66471 11.8882 9.77452C11.8477 9.66471 11.3036 8.15625 11.3036 8.15625H10.8984L11.6682 10.2253H11.9924L12.7911 8.15625H12.4786Z" fill="#D7C9B1"/>
<path d="M20.5575 9.17656L20.2797 9.03785L20.0424 8.92226C19.8687 8.82978 19.7819 8.73153 19.7819 8.6275C19.7819 8.54081 19.8224 8.47723 19.9035 8.431C19.9671 8.39632 20.0539 8.37898 20.1639 8.37898C20.3433 8.37898 20.5286 8.43677 20.627 8.51191L20.6617 8.54081V8.1767H20.6443C20.4996 8.12468 20.3433 8.10156 20.1755 8.10156C19.9613 8.10156 19.7819 8.14202 19.6372 8.22871C19.4636 8.32696 19.3767 8.47145 19.3767 8.66218C19.3767 8.8529 19.4751 9.01473 19.6604 9.1361L19.7645 9.18811L20.1755 9.3904C20.3491 9.48287 20.436 9.5869 20.436 9.70827C20.436 9.80074 20.3896 9.8701 20.2913 9.92789C20.2044 9.97991 20.1118 10.003 20.0192 10.003C19.7993 10.003 19.5851 9.94523 19.3999 9.83542L19.3594 9.8123L19.4115 10.1706H19.423C19.5909 10.24 19.7819 10.2689 19.9845 10.2689C20.2392 10.2689 20.4533 10.2053 20.6096 10.0782C20.7601 9.96257 20.8295 9.80074 20.8295 9.61002C20.8295 9.44241 20.7311 9.29793 20.5459 9.17656H20.5575Z" fill="#D7C9B1"/>
<path d="M24.0273 8.14844V8.42008C24.0273 8.42008 24.5598 8.42008 24.6061 8.42008V10.2175H24.965C24.965 10.2175 24.965 8.46631 24.965 8.42008H25.5554V8.14844H24.0331H24.0273Z" fill="#D7C9B1"/>
<path d="M27.8796 8.14844C27.8796 8.14844 27.3529 8.96335 27.3182 9.02115C27.2834 8.96335 26.7625 8.14844 26.7625 8.14844H26.3516C26.3516 8.14844 27.0866 9.30434 27.0982 9.3159C27.0982 9.32746 27.0982 10.2175 27.0982 10.2175H27.4571C27.4571 10.2175 27.4571 9.33324 27.4571 9.3159C27.4629 9.30434 28.2327 8.14844 28.2327 8.14844H27.8854H27.8796Z" fill="#D7C9B1"/>
<path d="M17.9778 9.7514C17.9778 9.7514 17.6363 9.32372 17.5495 9.2139C17.6189 9.19079 17.7463 9.13299 17.8389 9.03474C17.9431 8.92493 17.9952 8.80356 17.9952 8.67063C17.9952 8.52036 17.9373 8.39321 17.8273 8.30074C17.7058 8.20249 17.5437 8.15625 17.3411 8.15625H16.6523V10.2195H17.017V10.1849C17.0054 10.1155 17.0054 10.0173 17.0054 9.76296V8.41055C17.3411 8.41055 17.4742 8.45101 17.5263 8.48568C17.5958 8.5377 17.6305 8.60705 17.6305 8.70531C17.6305 8.93071 17.4627 9.06942 17.1212 9.12143H17.0807L17.8042 10.0519C17.891 10.1617 18.0125 10.2138 18.1746 10.2138H18.4698L18.4061 10.1733C18.2614 10.0751 18.0994 9.91901 17.9662 9.7514H17.9778Z" fill="#D7C9B1"/>
</g>
<defs>
<clipPath id="clip0_5107_31055">
<rect width="152" height="41" fill="white"/>
</clipPath>
</defs>
</svg>
