<svg width="146" height="45" viewBox="0 0 146 45" fill="none" xmlns="http://www.w3.org/2000/svg">
<g clip-path="url(#clip0_5107_30977)">
<path d="M44.6784 12.6724C44.6784 12.6724 44.1395 12.5497 44.3283 12.1724C44.3283 12.1724 45.0238 10.9226 44.835 9.95902C44.835 9.95902 44.835 9.10911 44.3513 8.7546C44.0473 8.53189 43.923 8.68642 43.8861 8.72278C43.7618 8.8455 43.8216 8.86368 43.6835 9.14547C43.4486 9.6136 43.3749 9.77268 41.7996 11.1453C40.3994 12.3633 40.6159 12.2452 40.1415 12.6088C39.796 12.8724 38.5294 14.0222 38.5754 14.9358C38.6169 15.7312 39.0545 16.2402 39.8605 16.1039C40.6205 15.9811 40.9521 15.4539 41.3298 15.1721C41.3298 15.1721 41.9562 14.604 42.274 14.504C42.8406 14.3222 43.6052 14.3177 44.1625 14.9858C44.6691 15.5857 44.5954 16.0539 43.9322 16.9447C43.9322 16.9447 43.8216 17.2856 43.6973 17.4446C43.5729 17.5992 42.6287 18.2809 41.8227 18.5127C41.0903 18.7218 41.141 18.4582 40.8278 18.49C40.5099 18.5218 39.5565 19.1126 39.3308 19.5217C39.1097 19.9262 39.1097 20.1898 39.7408 20.6898C40.1783 21.0352 40.6573 21.0397 41.7029 20.6898C42.5458 20.4034 44.4296 19.2854 45.1482 18.2855C45.7884 17.3992 46.401 16.1993 46.2214 14.6676C46.0647 13.3269 45.1159 12.8042 44.6737 12.6724H44.6784Z" fill="#231815"/>
<path d="M52.5215 12.1731C52.4754 10.2096 51.6187 9.03246 51.2871 8.75067C51.1673 8.65068 50.7251 8.60978 50.3613 8.89611C49.8638 9.28698 49.9329 10.0415 49.9329 10.4187C49.9329 10.7959 50.0112 10.8277 49.9145 11.205C49.8224 11.5731 49.8224 11.6322 49.8592 12.9639C49.8592 13.2457 49.5276 13.5275 49.0071 13.5275C48.4866 13.5275 47.1555 13.6275 47.1555 13.6275C47.1555 13.6275 47.2891 13.582 46.9114 13.6774C46.5291 13.7683 46.7824 14.1456 46.8791 14.3774C46.9206 14.4819 47.045 14.8591 47.4733 15.0409C47.7819 15.1728 48.1412 15.4227 48.5788 15.45C49.0393 15.4818 49.7625 15.4545 49.7625 15.4545C50.0481 15.55 50.1448 15.5364 50.1908 15.7681C50.2415 16.0045 50.329 19.845 50.5179 20.3631C50.7067 20.8813 51.0475 20.8858 51.2825 20.9313C51.522 20.9767 51.6647 21.2858 52.2773 20.6904C53.0742 19.9268 52.7057 19.1951 52.609 17.6952C52.5122 16.1999 52.5122 12.1731 52.5122 12.1731H52.5215Z" fill="#231815"/>
<path d="M61.1129 14.3397C62.1815 14.2079 62.8632 13.2217 63.2086 12.3809C63.5541 11.5355 64.0423 9.44479 63.3238 8.78122C62.7849 8.28127 62.4717 8.33581 62.375 8.33581C62.1355 8.33581 61.7532 8.48579 61.5643 8.46761C61.2926 8.4358 60.8596 8.37671 60.0351 8.40853C59.2107 8.44034 57.9164 8.31308 57.6308 8.24945C57.3452 8.18582 57.032 7.99039 56.7787 7.89949C56.5254 7.80404 56.1615 8.14946 56.1615 8.14946C56.1615 8.14946 55.3555 8.98574 55.3555 9.54478C55.3555 10.1038 55.6088 10.4992 56.7142 10.5583C57.8197 10.6219 58.0407 10.3402 58.4829 10.1856C58.9251 10.0265 60.422 9.33116 60.9886 9.7084C61.5597 10.0811 60.832 12.2354 59.4179 14.4625C59.4041 14.4625 59.5101 14.4079 60.3806 14.2898C60.7583 14.2398 60.855 14.3716 61.1083 14.3397H61.1129Z" fill="#231815"/>
<path d="M72.374 10.7155C72.3556 10.57 72.2128 10.3019 72.2404 10.3428C72.0838 10.0019 71.3192 10.0701 71.0705 10.0383C70.8172 10.0065 70.4072 9.97009 70.0065 10.0292C69.7394 10.0701 69.3985 10.1564 68.8919 10.1019C68.505 10.061 68.1043 10.0701 67.7542 10.0383C67.5561 10.0201 67.3811 10.0155 67.266 10.011C67.2245 9.63831 67.1738 9.27925 67.1232 9.09291C67.0633 8.87929 67.0311 7.09766 65.9855 7.09766C65.6861 7.09766 65.5433 7.40672 65.4144 7.50216C65.4144 7.50216 64.9077 8.22027 64.8432 9.31107C64.7787 10.4019 64.94 12.5562 64.9676 12.9289C64.9998 13.3016 65.2532 13.6379 65.5065 13.7333C65.7598 13.8242 66.0454 13.8242 66.2665 13.8879C66.4876 13.9515 66.7731 13.8652 66.9942 13.6561C67.3673 13.3061 67.312 13.2425 67.3397 12.8334C67.3673 12.4653 67.3719 11.4154 67.3719 11.2154C67.464 11.22 67.6114 11.2336 67.874 11.2654C68.4405 11.3245 68.9057 11.7926 69.288 12.0153C69.6657 12.2335 70.7481 12.279 70.9461 12.2426C71.2778 12.179 71.5127 11.979 71.8213 11.8972C72.6734 11.6745 72.5582 11.3336 72.4937 11.2109C72.4339 11.0882 72.3878 10.8427 72.374 10.7109V10.7155Z" fill="#231815"/>
<path d="M66.4571 14.8042L65.2872 14.6179C65.2595 14.3179 65.0661 14.1725 65.0661 14.1725C65.0661 14.1725 64.7805 14.0271 64.4673 14.2452C64.3475 14.327 63.3757 14.3725 62.9473 14.5952C62.8092 14.6679 62.3071 14.7315 61.8972 15.0224C61.4412 15.3406 59.8982 16.5223 60.2621 19.1402C60.5568 21.2763 62.8092 21.849 63.3619 21.9263C64.2324 22.049 66.4617 22.049 67.65 21.1445C68.9719 20.1355 68.9904 18.8084 68.8936 17.654C68.7969 16.4495 67.6915 15.0815 66.4617 14.8042H66.4571ZM66.6183 19.2902C65.8261 20.181 64.3107 20.1401 63.3527 19.681C62.3117 19.1811 62.1505 17.9585 62.6572 16.9768C63.1638 15.995 64.0896 15.9496 64.0896 15.9496C65.1674 15.8905 65.1812 15.9496 65.1812 15.9496C66.3511 16.195 66.4617 16.595 66.6736 16.854C66.7979 17.004 67.5395 18.2539 66.6183 19.2902Z" fill="#231815"/>
<path d="M81.7851 17.8773C81.214 18.1091 81.2001 18.2045 80.6935 18.2045C80.1868 18.2045 80.454 18.25 80.021 18.15C79.7585 18.0909 79.6756 18.0682 79.3946 18.0046C78.9847 17.9091 78.0036 17.7546 77.9714 16.3502C77.9391 14.8549 77.8424 13.3868 78.0957 13.105C78.349 12.8233 78.2339 12.5551 78.2615 12.3369C78.2938 12.1188 78.5793 12.0233 78.7359 12.0552C78.8972 12.0824 79.1689 12.187 79.6111 12.187C79.6111 12.187 80.021 12.0733 80.2743 12.0552C80.4309 12.0415 80.781 12.1461 81.2232 11.7734C81.2232 11.7734 81.9832 11.2007 82.0154 10.7644C82.0476 10.3281 81.9233 9.76902 80.9422 9.76902C80.0901 9.76902 79.2334 9.71448 78.7313 9.64176C78.3076 9.58268 77.9714 9.54632 77.6582 9.51905C77.6582 9.51905 76.9673 9.25998 76.4237 9.80084C76.0138 10.2053 76.0921 10.4644 76.2349 10.6871C76.456 11.0462 77.2298 11.3416 77.1837 11.5279C77.1377 11.7143 76.7554 11.9506 76.6633 12.0915C76.5665 12.2324 76.3777 12.4642 76.4744 12.7005C76.5711 12.9369 76.4744 13.2141 76.2349 13.4505C76 13.6868 76 14.2004 76 14.4322L76.0461 17.6955C76.0461 17.6955 75.6684 20.0498 79.5558 20.0953C79.5558 20.0953 81.4397 20.0771 82.149 19.868C82.4345 19.7862 82.5174 19.5317 82.7109 19.3362C82.8445 19.1953 82.8537 18.7272 82.8076 18.5045C82.7109 18.0682 82.2319 17.7 81.7897 17.8818L81.7851 17.8773Z" fill="#231815"/>
<path d="M90.1157 10.1042C90.0972 10.0314 90.1663 8.94518 89.7057 8.88609C89.1991 8.82246 89.2313 8.90882 88.9457 8.94063C88.9457 8.94063 88.347 8.89973 88.3792 9.55421C88.4115 10.2087 88.1904 10.8541 88.1904 11.3495C88.1904 11.6131 88.3009 14.5128 88.3654 15.5854C87.914 15.6081 87.3337 15.6172 86.979 15.6218C86.9375 13.4038 86.7994 10.1678 86.1361 9.72692C85.6341 9.39059 85.4913 9.19515 85.0583 9.28605C84.8372 9.3315 84.6806 9.41786 84.63 9.55875C84.63 9.55875 84.4549 9.81782 84.6253 10.4496C84.7635 10.9677 84.6806 15.59 84.7267 16.5762C84.7773 17.5579 84.7267 19.7941 84.9616 19.935C85.2011 20.0759 85.4821 20.1395 85.8137 19.8577C86.1453 19.5759 86.7625 19.8032 87.0481 19.5305C87.1725 19.4123 87.0481 18.2124 87.002 17.6988C87.002 17.6534 86.9928 17.5625 86.9928 17.4398C87.0803 17.3989 87.2001 17.3489 87.3659 17.2807C87.7021 17.1443 88.1167 17.1625 88.4575 17.2171C88.5036 18.167 88.5496 19.1896 88.5681 19.2441C88.6003 19.3396 88.6325 20.1168 89.4846 20.1168C90.5302 20.1168 90.6868 19.835 90.8756 18.8987C91.0645 17.9624 90.5717 15.54 90.5164 14.1265C90.4519 12.413 90.1801 10.3223 90.1157 10.1042Z" fill="#231815"/>
<path d="M99.5798 8.32786C99.8193 8.41876 100.575 8.5142 100.814 7.76428C101.049 7.01435 100.575 6.59621 100.34 6.31442C100.1 6.03263 99.2482 5.84629 98.631 6.17353C98.631 6.17353 97.9723 6.62348 98.3961 7.2007C98.7599 7.70065 99.3449 8.22787 99.5798 8.32331V8.32786Z" fill="#231815"/>
<path d="M99.7691 17.8954C99.7691 17.8954 100.626 17.7182 100.939 17.5C101.179 17.3364 101.57 17.0955 101.791 17.0637C102.012 17.0319 102.74 16.5001 102.961 15.5684C103.182 14.6321 102.837 12.7914 101.413 11.7642C101.413 11.7642 100.621 11.2643 100.119 11.1097C99.6125 10.9552 100.658 10.8598 100.847 10.8598C101.036 10.8598 101.699 10.9552 101.92 10.4553C102.141 9.95531 102.021 10.0826 102.224 9.83259C102.381 9.63261 102.335 9.37809 101.952 9.08267C101.667 8.86451 101.289 8.67816 100.75 8.6418C100.216 8.60999 98.8525 8.60999 98.3781 8.57817C97.9037 8.54636 96.3561 8.48727 96.3561 8.48727C96.3561 8.48727 95.0895 8.39183 95.1217 9.29628C95.1539 10.2007 95.2461 10.7007 96.1028 10.9507C96.9457 11.1961 97.3372 11.1961 97.5675 11.2325C97.5675 11.2325 96.5127 11.7324 95.7527 13.2595C95.2415 14.2867 95.1816 16.0365 96.3837 17.0046C97.549 17.9409 98.7881 17.9636 99.7645 17.9L99.7691 17.8954ZM97.7471 14.2231C97.7793 12.8505 99.0736 12.7777 99.0736 12.7777C100.653 12.6323 101.312 13.6595 101.413 14.314C101.538 15.1275 101.266 15.4275 101.105 15.4911C100.948 15.5547 100.566 15.6184 100.345 15.7411C100.124 15.8683 100.211 16.032 99.8612 16.0911C99.5158 16.1547 99.1335 16.1456 98.7236 15.8638C98.3136 15.582 97.7149 15.3093 97.7425 14.2185L97.7471 14.2231Z" fill="#231815"/>
<path d="M110.365 12.7279C109.572 12.2598 108.909 12.387 107.55 12.2598C106.519 12.1643 105.971 11.8552 105.727 11.6644C105.717 10.8963 105.708 10.2236 105.685 9.91908C105.621 9.07825 105.75 7.64204 105.082 6.70577C104.478 5.85131 104.087 6.52397 104.078 6.54215C104.013 6.76031 103.921 7.1739 103.792 7.36479C103.668 7.55114 103.451 7.96928 103.516 8.15562C103.516 8.15562 103.562 11.978 103.686 14.0096C103.843 16.5684 103.907 17.1002 104.382 17.0684C104.699 17.0456 105.045 16.9002 105.33 16.5593C105.616 16.2139 105.929 15.8821 105.814 15.1322C105.768 14.8277 105.745 13.9868 105.736 13.0597C106.256 13.1097 106.334 13.1551 106.818 13.6051C107.343 14.0914 108.034 14.5504 109.126 14.5913C110.392 14.6368 110.706 14.1732 110.77 13.9187C110.812 13.746 111.023 13.1278 110.36 12.7324L110.365 12.7279Z" fill="#231815"/>
<path d="M107.169 18.033C107.169 18.033 106.902 18.0512 106.598 18.0739C106.253 18.0966 105.811 18.0739 105.553 17.9785C105.299 17.883 103.719 17.8421 102.517 17.8739C101.062 17.9103 99.9057 18.1921 99.1042 18.3739C98.2843 18.5602 98.3442 18.9693 98.312 19.092C98.312 19.092 98.1554 19.8737 99.2931 19.8101C100.182 19.7601 100.339 19.2601 101.568 19.2601C102.798 19.2601 104.608 18.8965 105.331 18.9874C106.059 19.0829 106.28 19.2465 106.313 19.901C106.345 20.5555 106.313 21.9281 106.313 21.9281C106.313 21.9281 106.409 22.6553 106.976 22.5916C107.547 22.528 107.796 22.3053 108.054 22.0235C108.404 21.6417 108.339 20.3691 108.339 20.0555C108.339 19.7419 108.436 18.4011 107.169 18.0284V18.033Z" fill="#231815"/>
<path d="M119.123 10.4745C119.598 10.4745 119.584 10.5881 119.856 10.6063C120.265 10.6381 121.048 10.529 121.435 10.4745C122.034 10.3881 123.513 10.4108 123.734 10.6608C123.955 10.9108 124.379 11.2608 124.471 13.2287C124.577 15.4467 124.595 15.7239 124.913 16.0694C125.231 16.4148 125.198 16.383 125.544 16.442C125.922 16.5102 126.262 16.483 126.447 15.6012C126.447 15.6012 126.585 14.4786 126.741 13.8559C126.898 13.2333 126.967 12.6243 126.741 11.5471C126.553 10.6426 125.945 9.52911 124.084 9.16551C123.011 8.95644 123.043 9.07007 122.568 8.97917C122.094 8.88372 120.482 8.98826 119.851 8.92463C119.22 8.861 118.418 8.73828 118.101 8.73828C117.889 8.73828 117.751 9.02007 117.723 9.23823C117.723 9.23823 117.534 9.63365 117.912 9.97907C118.29 10.3199 118.644 10.479 119.119 10.479L119.123 10.4745Z" fill="#231815"/>
<path d="M115.429 15.8436C115.553 15.939 115.807 16.0754 116.028 16.0617C116.313 16.0481 116.502 15.689 116.659 15.5936C116.815 15.4982 117.175 15.2209 117.304 15.03C117.428 14.8437 117.396 14.7482 117.271 14.6255C117.147 14.5028 117.041 13.9074 116.944 13.5983C116.852 13.2847 116.313 12.9575 116.06 12.9257C115.807 12.8939 115.618 13.0575 115.553 13.5574C115.553 13.5574 115.521 13.9938 115.236 14.3074C114.95 14.621 114.95 15.2209 115.079 15.4709C115.203 15.7209 115.3 15.7527 115.424 15.8436H115.429Z" fill="#231815"/>
<path d="M131.053 17.437C131.021 17.2507 130.694 17.1871 130.381 17.1234C130.063 17.0643 129.939 16.9371 129.621 16.8735C129.303 16.8098 126.65 16.928 125.987 16.928C125.605 16.928 123.633 16.7826 121.128 16.778C121.233 16.7053 121.335 16.6189 121.436 16.5008C121.768 16.0963 122.007 15.969 122.132 15.8781C122.256 15.7827 122.569 14.3646 122.164 13.9101C121.689 13.3829 121.27 12.9693 121.091 12.8784C120.713 12.6921 120.174 12.8784 120.11 13.442C120.077 13.7192 119.856 13.9737 119.792 14.0646C119.792 14.0646 119.479 14.6873 119.635 15.2827C119.792 15.8781 119.856 16.0917 119.889 16.3417C119.907 16.478 119.953 16.6553 119.99 16.7826C118.465 16.8053 116.816 16.8916 115.241 17.0871C115.241 17.0871 114.642 17.2098 114.228 17.1189C113.818 17.028 113.657 16.6053 113.09 16.8689C113.09 16.8689 112.837 17.0871 112.648 17.337C112.459 17.587 112.551 17.7143 112.491 17.837C112.427 17.9643 112.206 18.3369 112.648 18.5233C113.09 18.7096 113.343 18.8642 113.629 18.8642C113.915 18.8642 114.292 19.0278 114.642 19.0005C114.988 18.9687 115.844 18.7096 116.411 18.646C116.982 18.5824 122.196 18.196 123.302 18.2597C124.407 18.3233 128.709 18.4597 129.432 18.5824C130.16 18.7051 130.224 18.5506 130.57 18.3324C130.915 18.1142 131.086 17.6143 131.053 17.4279V17.437Z" fill="#231815"/>
<path d="M42.9859 32.138C42.9859 31.4017 42.5851 30.8972 41.6824 30.5063L41.4889 30.4154C40.3927 29.9064 39.2734 29.2065 39.2734 27.8339C39.2734 26.2068 40.4572 25.1523 42.2857 25.1523C42.6911 25.1523 43.0918 25.2069 43.4511 25.3114L43.5985 25.3523L44.1097 25.4978C44.1097 25.4978 44.1097 25.4978 44.1097 25.5069C44.1097 25.6614 44.363 27.5294 44.363 27.5294L43.838 27.5794C43.6077 26.7476 43.1563 25.7568 42.1061 25.7568C41.4475 25.7568 40.95 26.275 40.95 26.9567C40.95 27.5794 41.3369 28.0066 42.295 28.4293L42.5759 28.5611C43.8748 29.1656 44.7361 29.861 44.7361 31.3108C44.7361 32.9788 43.4511 34.0969 41.5304 34.0969C40.9961 34.0969 40.4756 33.9833 40.1624 33.8742C40.1624 33.8742 39.3656 33.5606 39.3656 33.556C39.3656 33.556 39.3656 33.556 39.3656 33.5515C39.3656 33.4788 39.2044 32.6425 39.2044 32.6425L38.9648 31.3744C38.9648 31.3744 39.3564 31.2881 39.4577 31.2563C39.6143 31.6926 40.3466 33.4924 41.7607 33.4924C42.5022 33.4924 42.9812 32.9606 42.9812 32.1335L42.9859 32.138Z" fill="#231815"/>
<path d="M49.0042 26.7266C46.6367 26.7266 45.4023 28.6218 45.4023 30.4944C45.4023 32.5669 46.8532 34.0667 48.8614 34.0667C50.8696 34.0667 52.3712 32.5214 52.3712 30.308C52.3712 28.231 50.9571 26.7266 49.0088 26.7266H49.0042ZM49.0549 33.585C48.0001 33.585 47.2678 32.1624 47.2678 30.1262C47.2678 28.3582 47.8665 27.2129 48.7923 27.2129C49.6398 27.2129 50.4965 28.281 50.4965 30.6625C50.4965 32.6032 50.0129 33.585 49.0549 33.585Z" fill="#231815"/>
<path d="M53.1797 30.4755C53.1797 27.8894 55.2432 26.7305 57.2882 26.7305C58.1541 26.7305 59.0293 26.9441 59.278 27.0123C59.2734 27.0123 59.4162 28.9166 59.4162 28.9166C59.4162 28.9166 59.0937 28.9393 59.0247 28.9439C58.6976 27.5213 57.8179 27.2122 57.127 27.2122C55.9202 27.2122 55.0451 28.4985 55.0451 30.2665C55.0451 31.9163 55.7222 33.5843 57.2329 33.5843C57.5231 33.5843 57.7074 33.4752 57.7074 32.9389V31.8936C57.7074 31.1118 57.6383 31.0437 56.542 30.9528V30.5255H60.0149V30.9937C59.476 31.0573 59.407 31.1209 59.407 31.889V32.6708L59.4714 33.6752C58.7851 33.8297 57.9745 34.0615 57.1408 34.0615C54.6997 34.0615 53.1797 32.6844 53.1797 30.4665V30.4755Z" fill="#231815"/>
<path d="M74.6133 30.4755C74.6133 27.8894 76.6768 26.7305 78.7218 26.7305C79.5877 26.7305 80.4629 26.9441 80.7116 27.0123C80.707 27.0123 80.8498 28.9166 80.8498 28.9166C80.8498 28.9166 80.5273 28.9393 80.4583 28.9439C80.1312 27.5213 79.2469 27.2122 78.5606 27.2122C77.3538 27.2122 76.4787 28.4985 76.4787 30.2665C76.4787 31.9163 77.1558 33.5843 78.6665 33.5843C78.9567 33.5843 79.1409 33.4752 79.1409 32.9389V31.8936C79.1409 31.1118 79.0719 31.0437 77.9756 30.9528V30.5255H81.4485V30.9937C80.9096 31.0573 80.8406 31.1209 80.8406 31.889V32.6708L80.905 33.6752C80.2187 33.8297 79.4081 34.0615 78.5744 34.0615C76.1286 34.0615 74.6133 32.6844 74.6133 30.4665V30.4755Z" fill="#231815"/>
<path d="M65.8415 32.4623L64.538 28.7582C64.538 28.7582 63.8701 26.8311 63.8701 26.7266C63.8701 26.7266 63.1838 26.8675 63.1792 26.8493C63.1792 26.8584 61.0789 32.4896 61.0789 32.4896C60.7289 33.4168 60.5446 33.4759 60.0195 33.5122V33.9349H62.4238V33.5577L62.1383 33.5213C61.9218 33.4986 61.7744 33.4622 61.7099 33.3623C61.6362 33.2486 61.6823 33.0714 61.756 32.835C61.756 32.835 62.0692 31.7897 62.1106 31.7579L63.8747 31.7851L64.2524 32.8987C64.3307 33.1214 64.3584 33.2623 64.2985 33.3577C64.2478 33.4395 64.1465 33.4804 63.9438 33.5077C63.9438 33.5077 63.6721 33.5441 63.6629 33.5168V33.9304C63.7458 33.9304 66.8962 33.9304 66.8962 33.9304V33.5531C66.362 33.485 66.1777 33.4123 65.8369 32.4533L65.8415 32.4623ZM62.2488 31.1398L62.972 28.9263C62.972 28.9263 63.6767 31.1398 63.6352 31.1943L62.2488 31.1398Z" fill="#231815"/>
<path d="M72.8822 29.9143L72.7993 27.8236C72.744 27.4236 72.4769 27.2645 71.7492 27.2282V26.8691H74.3838V27.2691C73.8541 27.2509 73.5639 27.4281 73.5132 27.819L73.4303 29.9097V33.9366H72.569C72.569 33.9093 68.6171 28.7326 68.6171 28.7326V30.8687L68.7 32.9594C68.7553 33.3594 69.027 33.5184 69.7502 33.5548V33.932H67.1754V33.5093C67.6452 33.5275 67.9308 33.3366 67.9815 32.9549L68.069 30.8642V28.8553C68.069 28.0644 68.0552 27.9008 67.8295 27.5736C67.6591 27.3236 67.3965 27.2509 67.0234 27.2145V26.8555H69.3218C69.3218 26.8827 72.8822 31.505 72.8822 31.505V29.9006V29.9143Z" fill="#231815"/>
<path d="M98.1883 29.9136L98.1054 27.8229C98.0501 27.423 97.7784 27.2639 97.0552 27.2275V26.8685H99.6899V27.2502C99.1602 27.2321 98.87 27.4275 98.8147 27.8229L98.7318 29.9136V33.9405H97.8705C97.8705 33.9132 93.9186 28.7365 93.9186 28.7365V30.8726L94.0015 32.9633C94.0568 33.3633 94.3285 33.5223 95.0516 33.5587V33.9359H92.4769V33.5132C92.9467 33.5314 93.2323 33.3405 93.283 32.9588L93.3705 30.8681V28.8592C93.3705 28.0683 93.352 27.9047 93.131 27.5775C92.9605 27.3275 92.698 27.2548 92.3203 27.2184V26.8594H94.6187C94.6187 26.8866 98.1837 31.5089 98.1837 31.5089V29.9045L98.1883 29.9136Z" fill="#231815"/>
<path d="M90.7998 29.7491V28.9538C90.7998 27.8675 90.7675 27.0403 90.6984 26.504C90.6339 26.0222 90.3023 25.8495 89.4272 25.8086V25.3359H92.6191V25.8359C91.9973 25.8223 91.6519 26.0404 91.5874 26.5085C91.5183 27.0676 91.486 27.8948 91.486 28.9583V29.9809C91.486 31.3762 91.1774 32.4352 90.5741 33.1306C90.049 33.726 89.1094 34.1123 88.179 34.1123C87.1196 34.1123 86.3366 33.8805 85.7885 33.4033C85.1252 32.8443 84.8304 31.9035 84.8304 30.3536V27.4448C84.8304 26.0177 84.7613 25.8995 83.8125 25.8132V25.3359C83.8125 25.3359 87.7828 25.3359 87.8658 25.3359V25.8359C87.009 25.8768 86.9215 26.0313 86.9215 27.4448V30.1536C86.9215 32.0625 87.5848 33.1579 88.7409 33.1579C90.0674 33.1579 90.8044 31.9489 90.8044 29.7537L90.7998 29.7491Z" fill="#231815"/>
<path d="M100.184 33.9373V33.5191C100.916 33.4919 101.017 33.3646 101.017 32.1965V28.5924C101.017 27.4243 100.953 27.297 100.184 27.2289V26.8789H103.546V27.2561C102.814 27.2834 102.717 27.4289 102.717 28.5969V32.2011C102.717 33.3692 102.777 33.4964 103.546 33.5646V33.9418H100.184V33.9373Z" fill="#231815"/>
<path d="M108.152 31.6875L109.216 28.4742L109.318 28.1606C109.437 27.8061 109.483 27.5743 109.396 27.4379C109.327 27.3289 109.179 27.2925 108.968 27.2652L108.668 27.2516V26.8789H111.169V27.2561C110.594 27.2925 110.414 27.3698 109.99 28.3833L107.858 33.9418C107.858 33.9418 107.176 33.9418 107.121 33.9418C107.102 33.8873 105.039 28.3197 105.039 28.3197C104.684 27.3652 104.477 27.3198 103.961 27.2516V26.8789H107.309V27.2652C107.305 27.2334 106.969 27.2743 106.969 27.2743C106.794 27.297 106.674 27.3289 106.623 27.4152C106.563 27.5107 106.596 27.6425 106.66 27.8561L107.521 30.2195L108.111 31.8057L108.148 31.6921L108.152 31.6875Z" fill="#231815"/>
<path d="M111.371 33.9379V33.5198C112.186 33.4925 112.288 33.3789 112.288 32.1972V28.593C112.288 27.4295 112.232 27.3204 111.482 27.2477V26.875H116.521L116.608 28.643H116.184C116.124 28.1249 116.005 27.8158 115.834 27.634C115.668 27.4477 115.337 27.3704 114.733 27.3704H114.554C114.135 27.3704 114.006 27.384 114.006 27.7931V29.902L114.66 29.9429C115.595 29.9429 115.636 29.8702 115.742 29.0293H116.138V31.5609H115.696C115.632 30.6246 115.595 30.5155 114.655 30.5155H114.001V32.3381C114.001 32.9335 114.015 33.2062 114.222 33.3153C114.406 33.4107 114.77 33.4198 115.074 33.4198C115.636 33.4198 116.023 33.3062 116.221 33.0789C116.396 32.888 116.576 32.4926 116.742 31.9427C116.898 31.979 117.161 32.0427 117.161 32.0427C117.161 32.0427 116.848 33.6607 116.76 33.9379H111.376H111.371Z" fill="#231815"/>
<path d="M123.665 33.2283L122.905 32.0557C122.905 32.0557 122.085 30.5285 122.085 30.4376C122.969 30.074 123.416 29.4696 123.416 28.6287C123.416 28.0515 123.154 27.5516 122.698 27.2561C122.315 27.0016 121.79 26.8789 120.947 26.8789H117.709V27.2289C118.46 27.3016 118.515 27.4289 118.515 28.5924V32.1965C118.515 33.3646 118.414 33.4919 117.668 33.5191V33.9373H120.924V33.56C120.155 33.4873 120.095 33.3601 120.095 32.1965V30.8421H120.275C120.478 30.8421 120.643 30.9876 120.759 31.2648C121.026 31.9011 121.321 32.5556 121.629 33.0147C122.053 33.6509 122.408 33.9555 123.854 33.9873L124.259 34.0009L124.305 33.6964C124.305 33.6964 123.978 33.6509 123.67 33.2237L123.665 33.2283ZM121.099 30.2195C120.888 30.3786 120.62 30.4149 120.284 30.4149L120.095 30.374V27.8652C120.095 27.4061 120.151 27.3516 120.611 27.3516C121.072 27.3516 121.707 27.7334 121.707 28.7923C121.707 29.415 121.505 29.8968 121.104 30.224L121.099 30.2195Z" fill="#231815"/>
<path d="M126.313 31.0329C125.415 30.6194 124.499 30.0421 124.499 28.9195C124.499 27.5833 125.498 26.6788 126.968 26.7243C126.968 26.7243 127.557 26.7743 127.921 26.8561C128.285 26.9334 128.464 27.0061 128.464 27.0061V27.0197C128.464 27.1697 128.667 28.6696 128.667 28.6696L128.243 28.7059C128.064 28.0242 127.691 27.2106 126.82 27.2106C126.277 27.2106 125.862 27.6378 125.862 28.2014C125.862 28.715 126.185 29.0695 126.972 29.4195L127.202 29.5286C128.266 30.0194 128.976 30.5921 128.976 31.7829C128.976 33.1509 127.921 34.0645 126.35 34.0645C125.917 34.0645 125.489 33.969 125.226 33.8827L124.572 33.6236C124.572 33.5463 124.448 32.8782 124.448 32.8782C124.448 32.8782 124.255 31.8465 124.25 31.8374C124.264 31.8647 124.577 31.7692 124.646 31.7511C124.775 32.1101 125.369 33.5872 126.544 33.5872C127.156 33.5872 127.552 33.1464 127.552 32.4646C127.552 31.8556 127.221 31.4375 126.475 31.1148L126.318 31.0375L126.313 31.0329Z" fill="#231815"/>
<path d="M129.45 33.9373V33.5191C130.182 33.4919 130.279 33.3646 130.279 32.1965V28.5924C130.279 27.4243 130.219 27.297 129.45 27.2289V26.8789H132.808V27.2743C132.075 27.3016 131.979 27.4289 131.979 28.5969V32.2011C131.979 33.3692 132.038 33.4964 132.808 33.5646V33.9418H129.445L129.45 33.9373Z" fill="#231815"/>
<path d="M133.373 26.5977H133.654C133.788 26.8476 133.912 26.8931 134.202 26.8931H138.32C138.61 26.8931 138.675 26.8204 138.845 26.6113H139.135L139.209 28.7747H138.79C138.679 28.1657 138.564 27.8566 138.394 27.6566C138.219 27.4612 137.942 27.3794 137.371 27.3794H137.095V32.2016C137.095 33.3833 137.136 33.497 138.062 33.5651V33.9424H134.428V33.5242C135.271 33.497 135.372 33.3833 135.372 32.2016V27.4203L135.151 27.3794C134.516 27.3794 134.212 27.4794 134 27.7203C133.848 27.9203 133.802 28.2293 133.677 28.7747H133.281C133.323 28.7747 133.373 26.6022 133.373 26.6022V26.5977Z" fill="#231815"/>
<path d="M144.206 27.8015C144.266 27.647 144.317 27.5107 144.257 27.4152C144.211 27.338 144.11 27.297 143.93 27.2743L143.506 27.2516V26.8789H145.993V27.2516C145.422 27.2789 145.215 27.4379 144.856 28.097L143.75 30.1831C143.566 30.574 143.539 30.6422 143.539 31.1058V32.1965C143.539 33.3782 143.598 33.4919 144.506 33.56V33.9373H140.913V33.5555C141.738 33.5282 141.839 33.3737 141.839 32.1965V31.2557C141.839 30.9512 141.71 30.5513 141.71 30.5513L140.411 28.0833C140.029 27.3789 139.904 27.3198 139.402 27.2516V26.8789H142.603V27.2516C142.599 27.2198 142.184 27.297 142.184 27.297C142.069 27.3152 142 27.3516 141.972 27.4061C141.926 27.4879 141.972 27.5925 142.042 27.747L143.198 30.124L144.211 27.8015H144.206Z" fill="#231815"/>
<path d="M30.4123 23.8658C26.3636 13.5532 30.1405 5.03131 30.1405 5.03131L25.4793 0H5.9546L1.29336 5.02676C1.29336 5.02676 5.07025 13.5486 1.02161 23.8612C0.330712 25.6247 -1.13399 30.656 1.56511 34.9919C4.65111 39.9505 12.0851 43.1229 15.7146 44.9955V44.95L15.7193 44.9955C19.3488 43.1229 26.7828 39.946 29.8688 34.9919C32.5679 30.656 31.1032 25.6292 30.4123 23.8612V23.8658Z" fill="#C9CACA"/>
<path d="M1.89955 27.1144L15.7082 13.8703L29.8255 27.4098C29.7795 27.1371 29.7426 26.9871 29.7426 26.9871C29.5446 26.2281 29.3097 25.4464 29.0517 24.6192C28.1582 21.6922 26.9698 18.3744 26.9698 13.5521C26.9698 10.7615 27.5456 8.5299 28.2503 5.28478C27.4627 4.45304 25.3255 2.25781 24.6392 1.53516H6.78648C6.10019 2.26236 3.96303 4.45304 3.1754 5.28478C3.88012 8.5299 4.45586 10.7615 4.45586 13.5521C4.45586 18.3744 3.27213 21.6922 2.37857 24.6192C2.12524 25.4464 1.88573 26.2236 1.68768 26.9871C1.68768 26.9871 1.65083 27.1326 1.60938 27.3916L1.90416 27.1144H1.89955Z" fill="#B60005"/>
<path d="M15.7073 20.8756L2.4375 33.2471C2.73228 33.8698 3.10076 34.5015 3.58899 35.1242C5.7538 37.9648 9.59518 40.1601 12.672 41.7553C13.911 42.3962 14.9105 42.7234 15.7073 43.237V43.2461C15.7073 43.2461 15.7073 43.2461 15.7119 43.2461C15.7119 43.2461 15.7119 43.2461 15.7165 43.2461V43.237C16.5087 42.7234 17.5082 42.3916 18.7518 41.7553C21.8286 40.1601 25.67 37.9694 27.8348 35.1242C28.323 34.5061 28.6915 33.8743 28.9863 33.2517L15.7073 20.8711V20.8756Z" fill="#B60005"/>
<path d="M6.80067 5.89227C6.80067 5.55139 6.75922 5.43777 6.44141 5.4105V5.29688H8.03968V5.41959C7.71726 5.44686 7.68041 5.56048 7.68041 5.90136V10.1782C7.68041 10.5191 7.70805 10.6327 8.02586 10.66V10.7918H6.44141V10.6691C6.75922 10.6418 6.80067 10.5327 6.80067 10.1918V5.89227Z" fill="#C9CACA"/>
<path d="M12.4878 7.69663V5.91499C12.4878 5.57412 12.5154 5.46049 12.2206 5.43322V5.29688H13.7083V5.43322C13.3813 5.46049 13.3445 5.57412 13.3445 5.91499V10.1782C13.3445 10.5191 13.3813 10.6327 13.7037 10.66V10.7918H12.1377V10.6691C12.4647 10.6418 12.4878 10.5327 12.4878 10.1918V8.0875H10.369V10.1918C10.369 10.5327 10.3828 10.6463 10.6868 10.6691V10.7918H9.14844V10.6827C9.46625 10.6554 9.51231 10.5418 9.51231 10.2009V5.9059C9.51231 5.56503 9.48007 5.45141 9.14844 5.42414V5.30142H10.6316V5.41504C10.3414 5.44231 10.3736 5.55594 10.3736 5.89681V7.70118H12.4924L12.4878 7.69663Z" fill="#C9CACA"/>
<path d="M14.4247 9.7734C14.5076 10.0007 15.0696 10.5779 15.9493 10.5779C16.5389 10.5779 16.8935 10.1824 16.8935 9.60524C16.8935 9.02802 16.4928 8.67806 15.871 8.36445C15.2124 8.04176 14.3879 7.56453 14.3879 6.71916C14.3879 5.87379 15.065 5.1875 16.2487 5.1875C16.7277 5.1875 17.1054 5.29658 17.3679 5.37384C17.4002 5.70108 17.4232 5.87834 17.4647 6.13286L17.3173 6.16013C17.2298 5.90561 16.9304 5.51474 16.1013 5.51474C15.567 5.51474 15.2492 5.9147 15.2492 6.39192C15.2492 6.89642 15.6453 7.20093 16.2625 7.50545C17.0041 7.85541 17.7779 8.31446 17.7779 9.25073C17.7779 10.187 16.9626 10.9006 15.7881 10.9006C15.5071 10.9006 15.2077 10.8551 15.0005 10.8006C14.7748 10.746 14.5813 10.6733 14.4201 10.6097C14.3464 10.3688 14.3234 10.0643 14.2773 9.80976L14.4247 9.7734Z" fill="#C9CACA"/>
<path d="M19.8416 30.6938L19.4454 31.8573C19.4454 31.8573 19.8646 31.9118 20.2653 32.0255L19.5698 33.8617C19.5698 33.8617 18.2156 33.6389 16.9075 33.5753L16.9905 31.5801C16.9905 31.5801 17.276 31.5801 17.6721 31.6164L17.8057 30.4529C17.124 30.3984 16.4377 30.3711 15.7468 30.3711C15.0559 30.3711 14.3604 30.3984 13.6788 30.4529L13.8123 31.6164C14.2085 31.5755 14.494 31.5801 14.494 31.5801L14.5723 33.5753C13.2642 33.6389 11.9101 33.8617 11.9101 33.8617L11.2146 32.0164C11.6291 31.9209 12.039 31.8573 12.039 31.8573L11.6383 30.6938C10.169 30.9256 8.73656 31.271 7.35938 31.7391C9.10964 34.1116 10.7954 37.4067 10.7954 37.4067C16.1476 36.3523 20.6983 37.4067 20.6983 37.4067C21.5043 35.7069 23.4342 32.6118 24.1297 31.7346C22.7525 31.271 21.3201 30.9256 19.8508 30.6938H19.8416Z" fill="#C9CACA"/>
</g>
<defs>
<clipPath id="clip0_5107_30977">
<rect width="146" height="45" fill="white"/>
</clipPath>
</defs>
</svg>
