<svg width="37" height="37" viewBox="0 0 37 37" fill="none" xmlns="http://www.w3.org/2000/svg">
<path d="M20.499 5.80957L20.9189 6.64062L21.6416 6.05273L25.2471 3.11621L25.4785 7.76074L25.5254 8.69141L26.4238 8.44824L30.9121 7.23145L29.2344 11.5693L28.8984 12.4375L29.8184 12.5811L34.4121 13.2959L31.1162 16.5762L30.4561 17.2324L31.2383 17.7373L35.1455 20.2598L30.7998 21.915L29.9297 22.2471L30.4385 23.0264L32.9814 26.9189L28.3379 26.6641L27.4082 26.6123L27.5566 27.5322L28.2959 32.123L24.1582 30.001L23.3301 29.5762L23.0908 30.4766L21.8984 34.9707L18.9824 31.3496L18.3984 30.624L17.8145 31.3496L14.8975 34.9707L13.7061 30.4766L13.4668 29.5762L12.6387 30.001L8.5 32.123L9.24023 27.5322L9.38867 26.6123L8.45898 26.6641L3.81445 26.9189L6.3584 23.0264L6.86719 22.2471L5.99707 21.915L1.65039 20.2598L5.55859 17.7373L6.34082 17.2324L5.68066 16.5762L2.38379 13.2959L6.97852 12.5811L7.89844 12.4375L7.5625 11.5693L5.88379 7.23145L10.373 8.44824L11.2715 8.69141L11.3184 7.76074L11.5488 3.11621L15.1553 6.05273L15.8779 6.64062L16.2979 5.80957L18.3984 1.66016L20.499 5.80957Z" fill="#E470DC" stroke="black" stroke-width="1.5"/>
</svg>
