<?xml version="1.0" encoding="UTF-8"?>
<svg id="_레이어_2" data-name="레이어 2" xmlns="http://www.w3.org/2000/svg" viewBox="0 0 642.24 126.19">
  <defs>
    <style>
      .cls-1 {
        fill: #e470dc;
      }

      .cls-2 {
        fill: #232323;
      }
    </style>
  </defs>
  <g id="contents">
    <g>
      <path class="cls-1" d="M346.44,110.79c-6.6,0-12-1.1-16.3-3.4-4.4-2.4-7.6-5.6-9.7-9.9s-3.2-9.2-3.2-14.8,1.2-11.7,3.7-16.4c2.4-4.7,5.9-8.4,10.4-11,4.6-2.6,10.1-3.9,16.5-3.9s10.7,1.1,14.1,3.4c3.4,2.2,5.2,5.1,5.2,8.8s-.7,4.2-2.2,5.7c-1.5,1.4-3.4,2-6.1,2s-3.2-.3-4.5-.8c-1.4-.5-2.8-1.1-4.3-1.6s-3.2-.8-5.2-.8-4.4.4-6.3,1.2c-1.9.8-3.4,2.1-4.6,4-1.1,1.9-1.7,4.5-1.7,7.9,0,4.8,1.1,8.3,3.4,10.3s5.4,3,9.1,3,3.1-.1,4.8-.3c1.7-.3,3.3-.5,4.9-.8s2.9-.4,4-.4c2.3,0,4.1.6,5.4,1.8,1.4,1.1,2,2.9,2,5.3s-1.6,5.9-4.9,7.9c-3.2,2-8,3-14.4,3h0l-.1-.2ZM409.34,110.69c-2.4,0-4-.7-4.9-2.2-.8-1.5-1.2-3.8-1.2-7l1,.4c-3,6-8.8,9-17.3,9s-7-.7-9.7-2c-2.5-1.4-4.4-3.2-5.7-5.4-1.2-2.3-1.8-4.8-1.8-7.6,0-4.7,1.7-8.4,4.9-11.1,3.3-2.7,7.8-4.1,13.3-4.1s6.6.5,9.1,1.6c2.6,1,4.9,2.5,6.8,4.4l-1.9-.2c-.3-5.1-1.3-8.7-3.2-10.8-1.8-2.2-4.4-3.2-7.9-3.2s-3.5.3-5.3.8-3.3,1.1-4.9,1.7c-1.6.5-3,.8-4.5.8s-3-.5-4-1.5c-.9-1-1.4-2.3-1.4-3.9s1-4.2,3-6c2-1.9,4.7-3.3,8-4.5,3.3-1.1,6.9-1.7,10.8-1.7s9,1,12.5,3.1c3.5,2.1,6.1,5.2,7.7,9.3,1.4,3.3,2.3,7.1,2.9,11.2.6,4.1.9,8.5.9,13.2s-.3,7.3-.8,9.6-1.3,3.8-2.4,4.7c-1,.9-2.4,1.3-4.1,1.3h.1v.1ZM391.94,100.39c1.6,0,3.1-.2,4.6-.6,1.6-.4,2.9-1.1,4-2s1.7-2,1.7-3.4-.5-2.2-1.4-2.9c-.9-.8-2-1.3-3.4-1.7-1.5-.4-3-.6-4.6-.6-2.8,0-5.1.5-6.6,1.6-1.6,1-2.3,2.4-2.3,4.1s.7,3.1,2.2,4.1c1.5.9,3.4,1.4,6,1.4h-.2ZM462.64,72.09c.5-2.3,1.5-4.3,2.9-6.1,1.5-1.8,3.2-3.2,5.2-4.3,2-1.1,4.2-1.7,6.7-1.7s5.5.7,7.7,2c2.3,1.4,4,3.7,5.3,6.8,1.3,3.1,2,7.3,2,12.5s-.1,5.3-.3,8c-.2,2.7-.5,5.2-.8,7.5s-.7,4.2-1.1,5.8c-.6,2.4-1.6,4.2-3,5.4-1.4,1.2-3.1,1.8-5.2,1.8s-3.3-.6-4.4-2c-1-1.3-1.6-3.2-1.6-5.6s.2-2.4.4-4c.3-1.7.6-3.5.9-5.5.3-2,.6-4,.9-5.9.3-2,.4-3.9.4-5.5,0-2.4-.5-4.3-1.5-5.6-.9-1.3-2.3-2-4-2s-3.7,1.1-4.9,3.4c-1.3,2.2-2,5.4-2.2,9.7-.2,3.5-.4,6.8-.6,9.6-.2,2.7-.5,5.1-1.1,6.8-.5,1.7-1.3,3-2.4,3.8-1,.8-2.3,1.2-4,1.2s-3.4-.6-4.5-1.8c-1.1-1.2-1.7-3.1-1.8-5.8,0-1.8-.1-4-.1-6.5s.1-5.1.1-7.5,0-4.5-.1-6.2c-.2-2.9-.7-5.1-1.6-6.5-.9-1.4-2.2-2-3.9-2s-3.5,1-4.7,2.9c-1.1,1.9-1.9,4.5-2.2,7.9,0,1.5-.1,3.3-.1,5.4s0,4.3.1,6.5c0,2.1,0,3.9-.1,5.3,0,3.5-.7,6.1-1.9,7.7-1.1,1.6-2.8,2.3-4.9,2.3s-4.3-.8-5.4-2.2c-1.1-1.5-1.8-3.9-2-7.1-.2-2.4-.4-4.8-.5-7.2-.1-2.4-.2-4.8-.2-7.2s0-5,.2-7.7c.2-2.8.4-5.5.6-8,.3-3.1,1-5.8,2-7.9s2.7-3.1,5.1-3.1,3.5.8,4.4,2.4c.9,1.6,1.3,3.9,1.3,7.2s-.1,2.1-.3,3.1l-.3-1.7c1.1-3.6,2.9-6.3,5.4-8.3s5.3-3.1,8.3-3.1,7,1.3,9.2,3.8c2.3,2.5,3.5,5.9,3.7,10.3l-1.1-1h-.2l.2-.1ZM506.74,58.69c1.8,0,3.3.9,4.5,2.7,1.1,1.8,2,4.5,2.5,8.3l-1.7,1.3c1-3.9,2.8-6.8,5.5-8.8s5.9-3.1,9.6-3.1,6.5.9,9.1,2.6c2.7,1.8,4.8,4.4,6.3,8,1.6,3.5,2.3,8,2.3,13.3,0,8.7-1.6,15-4.8,19.1-3.1,4.1-7.4,6.1-12.7,6.1s-6.8-.8-9-2.5-3.7-3.7-4.5-6l1-.5c.4,3.2.8,6.3,1.1,9.5.3,3.1.5,5.9.5,8.2s-.5,4.8-1.7,6.6c-1,1.8-2.8,2.7-5.2,2.7s-4-.8-5.2-2.4c-1.1-1.6-1.9-3.8-2.4-6.5-.3-2.4-.6-5.4-1-9-.3-3.7-.6-7.7-.8-12-.2-4.3-.3-8.5-.3-12.5s.2-8,.4-11.6c.3-3.7.7-6.6,1.1-8.9.4-1.7,1-2.8,1.9-3.7.9-.8,2.1-1.2,3.4-1.2h0l.1.3ZM522.44,70.49c-2.6,0-4.7,1.3-6.3,3.9-1.6,2.6-2.3,5.9-2.3,10s.8,7.2,2.3,9.2c1.6,2,3.6,3.1,6.1,3.1s5-1.1,6.3-3.4c1.3-2.3,2-5.3,2-9s-.8-8.2-2.4-10.4c-1.6-2.2-3.5-3.3-5.7-3.3h0v-.1ZM589.64,109.39c-1.8,0-3.1-.5-4.1-1.5-.9-1-1.6-2.4-1.9-4-.3-1.7-.5-3.4-.5-5.2l.4-.3c-.6,2.4-1.8,4.4-3.4,6.1s-3.4,3-5.6,4c-2.1.9-4.2,1.3-6.3,1.3s-5.6-.6-7.9-2c-2.3-1.4-4-3.5-5.4-6.5-1.2-2.7-2.2-6.3-2.9-10.8-.6-4.4-1-8.9-1-13.6s.1-4.5.3-6.5c.2-2,.5-3.7,1-5.1.5-1.7,1.4-3,2.6-3.7,1.1-.8,2.6-1.2,4.3-1.2s3.5.7,4.7,2.2c1.1,1.4,1.8,3.3,2,5.9.2,1.8.4,3.9.4,6.3.1,2.4.2,4.8.3,7.3.1,2.4.2,4.5.3,6.1.3,2.8,1,4.9,2.2,6.2,1.1,1.3,2.6,2,4.3,2s4.2-1,5.5-2.9c1.3-2,1.9-4.7,1.9-8.2s-.1-3.8-.3-6c-.2-2.3-.4-4.5-.6-6.6-.2-2.2-.3-3.9-.3-5.3,0-3,.5-5.2,1.7-6.5,1.1-1.3,2.6-2,4.6-2s3.1.4,4.2,1.2c1.2.8,2.1,1.9,2.7,3.3.8,1.7,1.5,3.9,2,6.7.5,2.8,1,6,1.3,9.6.3,3.5.5,7.3.5,11.2,0,6.2-.5,10.8-1.6,13.9-1,3-2.8,4.5-5.4,4.5h-.1l.1.1ZM626.34,58.29c5.3,0,9.1.9,11.4,2.6,2.4,1.7,3.5,3.8,3.5,6.5s-.5,3-1.7,4c-1,1-2.6,1.5-4.5,1.5s-3.5-.3-5.4-.8-4.1-.8-6.6-.8-3.8.4-4.9,1.3c-1.1.8-1.7,1.9-1.7,3.1s.5,2.3,1.5,3.1c1,.7,3.1,1.2,6.2,1.6,4,.4,7.4,1.1,10.1,2.2,2.7.9,4.7,2.4,6,4.4,1.4,1.9,2,4.6,2,8.1,0,5.3-1.9,9.1-5.7,11.6s-9.1,3.7-15.9,3.7-7.9-.4-10.5-1.1c-2.6-.8-4.6-1.9-5.8-3.3-1.1-1.5-1.7-3.1-1.7-4.9s.6-3.1,1.7-4c1.1-1,2.5-1.5,4.1-1.5s2.6.2,4,.5c1.5.3,3,.6,4.5,1,1.6.3,3.2.5,4.9.5,4.2,0,6.3-1.3,6.3-3.8s-.2-1.6-.6-2.2c-.4-.6-1.2-1.1-2.5-1.5-1.1-.4-2.9-.7-5.2-1-3.4-.3-6.5-.9-9-1.7-2.5-.9-4.5-2.2-5.9-4-1.4-1.9-2-4.4-2-7.6,0-5.2,2-9.3,6-12.5s9.7-4.8,17.2-4.8h0l.2-.2Z"/>
      <g>
        <path class="cls-2" d="M21.41,6.03h-7.86v23.54h-5.74V6.03H0V.54h21.36v5.49h.05Z"/>
        <path class="cls-2" d="M42.53,24.08v5.49h-17.95V.54h17.75v5.49h-12.02v6.18h10.98v5.39h-10.98v6.53h12.21v-.05Z"/>
        <path class="cls-2" d="M45.05,15.08c0-8.51,6.28-15.08,15.08-15.08s9.99,2.67,12.46,6.82l-4.95,2.87c-1.38-2.57-4.2-4.15-7.57-4.15-5.69,0-9.4,3.96-9.4,9.54s3.71,9.49,9.4,9.49,6.18-1.58,7.57-4.1l4.95,2.87c-2.42,4.15-7.12,6.82-12.46,6.82-8.8,0-15.08-6.63-15.08-15.08h0Z"/>
        <path class="cls-2" d="M98.31.54v29.03h-5.69v-12.02h-10.78v12.02h-5.74V.54h5.74v11.52h10.78V.54h5.69Z"/>
        <path class="cls-2" d="M119.77,6.03v6.87h11.28v5.49h-11.28v11.18h-5.74V.54h17.36v5.49h-11.62Z"/>
        <path class="cls-2" d="M134.26,15.08c0-8.51,6.68-15.08,15.03-15.08s15.08,6.58,15.08,15.08-6.73,15.08-15.08,15.08-15.03-6.63-15.03-15.08ZM158.69,15.08c0-5.59-4.1-9.54-9.35-9.54s-9.35,3.96-9.35,9.54,4.1,9.49,9.35,9.49,9.35-3.96,9.35-9.49Z"/>
        <path class="cls-2" d="M178.52,19.48h-4.35v10.09h-5.74V.54h11.62c5.34,0,9.64,4.3,9.64,9.64s-2.27,6.92-5.59,8.46l6.43,10.98h-6.18l-5.84-10.09h0v-.05ZM174.17,14.49h5.88c2.18,0,3.96-1.93,3.96-4.3s-1.78-4.3-3.96-4.3h-5.88v8.6h0Z"/>
      </g>
      <g>
        <path d="M85.2,112.18h-11.5v-38.1l-16.5,27.3h-1.3l-16.5-27.2v38h-11.6v-58.7h11.9l16.8,27.7,16.8-27.7h11.9v58.7h0Z"/>
        <path d="M138,73.18c0,11-8.7,19.7-20.1,19.7h-10.3v19.3h-11.6v-58.7h21.9c11.3,0,20.1,8.7,20.1,19.7h0ZM126.5,73.18c0-5.1-3.6-8.9-8.5-8.9h-10.3v17.8h10.3c4.9,0,8.5-3.9,8.5-8.9h0Z"/>
        <path d="M173.9,101.68h-23.4l-3.5,10.5h-12.5l20.5-58.7h14.4l20.6,58.7h-12.6l-3.5-10.5h0ZM170.3,90.88l-8.1-24-8.1,24h16.2Z"/>
        <path d="M190.8,82.88c0-17.2,12.7-30.5,30.5-30.5s20.2,5.4,25.2,13.8l-10,5.8c-2.8-5.2-8.5-8.4-15.3-8.4-11.5,0-19,8-19,19.3s7.5,19.2,19,19.2,12.5-3.2,15.3-8.3l10,5.8c-4.9,8.4-14.4,13.8-25.2,13.8-17.8,0-30.5-13.4-30.5-30.5h0Z"/>
        <path d="M292.3,64.58h-15.9v47.6h-11.6v-47.6h-15.8v-11.1h43.2v11.1h.1Z"/>
        <path d="M11,113.18c4.2,0,7.6-3.4,7.6-7.6s-3.4-7.6-7.6-7.6-7.6,3.4-7.6,7.6,3.4,7.6,7.6,7.6Z"/>
        <path d="M11,90.28c1.7,0,3.3.3,4.8.8l4-37.7c-2.9-.5-5.8-.8-8.9-.8s-6,.3-8.9.8l4,37.7c1.5-.5,3.2-.8,4.8-.8h.2Z"/>
      </g>
    </g>
  </g>
</svg>